<svg width="3815" height="888" viewBox="0 0 3815 888" fill="none" xmlns="http://www.w3.org/2000/svg">
<circle cx="59.375" cy="174.625" r="59.375" fill="#BC2CFF"/>
<circle cx="59.375" cy="293.375" r="59.375" fill="#BC2CFF"/>
<circle cx="59.375" cy="412.125" r="59.375" fill="#BC2CFF"/>
<circle cx="59.375" cy="530.875" r="59.375" fill="#BC2CFF"/>
<circle cx="178.125" cy="174.625" r="59.375" fill="#BC2CFF"/>
<circle cx="178.125" cy="293.375" r="59.375" fill="#BC2CFF"/>
<circle cx="178.125" cy="412.125" r="59.375" fill="#BC2CFF"/>
<circle cx="178.125" cy="530.875" r="59.375" fill="#BC2CFF"/>
<circle cx="296.875" cy="174.625" r="59.375" fill="#BC2CFF"/>
<circle cx="296.875" cy="293.375" r="59.375" fill="#BC2CFF"/>
<circle cx="296.875" cy="412.125" r="59.375" fill="#BC2CFF"/>
<circle cx="296.875" cy="530.875" r="59.375" fill="#BC2CFF"/>
<circle cx="178.125" cy="293.375" r="59.375" fill="#F6E4FF"/>
<circle cx="178.125" cy="412.125" r="59.375" fill="#F6E4FF"/>
<circle cx="178.125" cy="530.875" r="59.375" fill="#F6E4FF"/>
<circle cx="178.125" cy="649.625" r="59.375" fill="#F6E4FF"/>
<circle cx="296.875" cy="293.375" r="59.375" fill="#F6E4FF"/>
<circle cx="296.875" cy="412.125" r="59.375" fill="#F6E4FF"/>
<circle cx="296.875" cy="530.875" r="59.375" fill="#F6E4FF"/>
<circle cx="296.875" cy="649.625" r="59.375" fill="#F6E4FF"/>
<circle cx="415.625" cy="293.375" r="59.375" fill="#F6E4FF"/>
<circle cx="415.625" cy="412.125" r="59.375" fill="#F6E4FF"/>
<circle cx="415.625" cy="530.875" r="59.375" fill="#F6E4FF"/>
<circle cx="415.625" cy="649.625" r="59.375" fill="#F6E4FF"/>
<path d="M1088.38 274.75C1074.87 274.75 1064.25 264.135 1064.25 250.625C1064.25 237.115 1074.87 226.5 1088.38 226.5C1101.88 226.5 1112.5 237.115 1112.5 250.625C1112.5 264.135 1101.88 274.75 1088.38 274.75ZM1040.12 274.75C1026.62 274.75 1016 264.135 1016 250.625C1016 237.115 1026.62 226.5 1040.12 226.5C1053.63 226.5 1064.25 237.115 1064.25 250.625C1064.25 264.135 1053.63 274.75 1040.12 274.75ZM702.375 274.75C688.865 274.75 678.25 264.135 678.25 250.625C678.25 237.115 688.865 226.5 702.375 226.5C715.885 226.5 726.5 237.115 726.5 250.625C726.5 264.135 715.885 274.75 702.375 274.75ZM654.125 274.75C640.615 274.75 630 264.135 630 250.625C630 237.115 640.615 226.5 654.125 226.5C667.635 226.5 678.25 237.115 678.25 250.625C678.25 264.135 667.635 274.75 654.125 274.75ZM750.625 274.75C737.115 274.75 726.5 264.135 726.5 250.625C726.5 237.115 737.115 226.5 750.625 226.5C764.135 226.5 774.75 237.115 774.75 250.625C774.75 264.135 764.135 274.75 750.625 274.75ZM798.875 274.75C785.365 274.75 774.75 264.135 774.75 250.625C774.75 237.115 785.365 226.5 798.875 226.5C812.385 226.5 823 237.115 823 250.625C823 264.135 812.385 274.75 798.875 274.75ZM847.125 274.75C833.615 274.75 823 264.135 823 250.625C823 237.115 833.615 226.5 847.125 226.5C860.635 226.5 871.25 237.115 871.25 250.625C871.25 264.135 860.635 274.75 847.125 274.75ZM943.625 274.75C930.115 274.75 919.5 264.135 919.5 250.625C919.5 237.115 930.115 226.5 943.625 226.5C957.135 226.5 967.75 237.115 967.75 250.625C967.75 264.135 957.135 274.75 943.625 274.75ZM991.875 274.75C978.365 274.75 967.75 264.135 967.75 250.625C967.75 237.115 978.365 226.5 991.875 226.5C1005.38 226.5 1016 237.115 1016 250.625C1016 264.135 1005.38 274.75 991.875 274.75ZM895.375 274.75C881.865 274.75 871.25 264.135 871.25 250.625C871.25 237.115 881.865 226.5 895.375 226.5C908.885 226.5 919.5 237.115 919.5 250.625C919.5 264.135 908.885 274.75 895.375 274.75ZM654.125 323C640.615 323 630 312.385 630 298.875C630 285.365 640.615 274.75 654.125 274.75C667.635 274.75 678.25 285.365 678.25 298.875C678.25 312.385 667.635 323 654.125 323ZM1088.38 323C1074.87 323 1064.25 312.385 1064.25 298.875C1064.25 285.365 1074.87 274.75 1088.38 274.75C1101.88 274.75 1112.5 285.365 1112.5 298.875C1112.5 312.385 1101.88 323 1088.38 323ZM1040.12 323C1026.62 323 1016 312.385 1016 298.875C1016 285.365 1026.62 274.75 1040.12 274.75C1053.63 274.75 1064.25 285.365 1064.25 298.875C1064.25 312.385 1053.63 323 1040.12 323ZM702.375 323C688.865 323 678.25 312.385 678.25 298.875C678.25 285.365 688.865 274.75 702.375 274.75C715.885 274.75 726.5 285.365 726.5 298.875C726.5 312.385 715.885 323 702.375 323ZM750.625 323C737.115 323 726.5 312.385 726.5 298.875C726.5 285.365 737.115 274.75 750.625 274.75C764.135 274.75 774.75 285.365 774.75 298.875C774.75 312.385 764.135 323 750.625 323ZM847.125 323C833.615 323 823 312.385 823 298.875C823 285.365 833.615 274.75 847.125 274.75C860.635 274.75 871.25 285.365 871.25 298.875C871.25 312.385 860.635 323 847.125 323ZM798.875 323C785.365 323 774.75 312.385 774.75 298.875C774.75 285.365 785.365 274.75 798.875 274.75C812.385 274.75 823 285.365 823 298.875C823 312.385 812.385 323 798.875 323ZM991.875 323C978.365 323 967.75 312.385 967.75 298.875C967.75 285.365 978.365 274.75 991.875 274.75C1005.38 274.75 1016 285.365 1016 298.875C1016 312.385 1005.38 323 991.875 323ZM943.625 323C930.115 323 919.5 312.385 919.5 298.875C919.5 285.365 930.115 274.75 943.625 274.75C957.135 274.75 967.75 285.365 967.75 298.875C967.75 312.385 957.135 323 943.625 323ZM895.375 323C881.865 323 871.25 312.385 871.25 298.875C871.25 285.365 881.865 274.75 895.375 274.75C908.885 274.75 919.5 285.365 919.5 298.875C919.5 312.385 908.885 323 895.375 323ZM798.875 371.25C785.365 371.25 774.75 360.635 774.75 347.125C774.75 333.615 785.365 323 798.875 323C812.385 323 823 333.615 823 347.125C823 360.635 812.385 371.25 798.875 371.25ZM847.125 371.25C833.615 371.25 823 360.635 823 347.125C823 333.615 833.615 323 847.125 323C860.635 323 871.25 333.615 871.25 347.125C871.25 360.635 860.635 371.25 847.125 371.25ZM654.125 371.25C640.615 371.25 630 360.635 630 347.125C630 333.615 640.615 323 654.125 323C667.635 323 678.25 333.615 678.25 347.125C678.25 360.635 667.635 371.25 654.125 371.25ZM702.375 371.25C688.865 371.25 678.25 360.635 678.25 347.125C678.25 333.615 688.865 323 702.375 323C715.885 323 726.5 333.615 726.5 347.125C726.5 360.635 715.885 371.25 702.375 371.25ZM750.625 371.25C737.115 371.25 726.5 360.635 726.5 347.125C726.5 333.615 737.115 323 750.625 323C764.135 323 774.75 333.615 774.75 347.125C774.75 360.635 764.135 371.25 750.625 371.25ZM991.875 371.25C978.365 371.25 967.75 360.635 967.75 347.125C967.75 333.615 978.365 323 991.875 323C1005.38 323 1016 333.615 1016 347.125C1016 360.635 1005.38 371.25 991.875 371.25ZM1040.12 371.25C1026.62 371.25 1016 360.635 1016 347.125C1016 333.615 1026.62 323 1040.12 323C1053.63 323 1064.25 333.615 1064.25 347.125C1064.25 360.635 1053.63 371.25 1040.12 371.25ZM1088.38 371.25C1074.87 371.25 1064.25 360.635 1064.25 347.125C1064.25 333.615 1074.87 323 1088.38 323C1101.88 323 1112.5 333.615 1112.5 347.125C1112.5 360.635 1101.88 371.25 1088.38 371.25ZM943.625 371.25C930.115 371.25 919.5 360.635 919.5 347.125C919.5 333.615 930.115 323 943.625 323C957.135 323 967.75 333.615 967.75 347.125C967.75 360.635 957.135 371.25 943.625 371.25ZM895.375 371.25C881.865 371.25 871.25 360.635 871.25 347.125C871.25 333.615 881.865 323 895.375 323C908.885 323 919.5 333.615 919.5 347.125C919.5 360.635 908.885 371.25 895.375 371.25ZM895.375 419.5C881.865 419.5 871.25 408.885 871.25 395.375C871.25 381.865 881.865 371.25 895.375 371.25C908.885 371.25 919.5 381.865 919.5 395.375C919.5 408.885 908.885 419.5 895.375 419.5ZM943.625 419.5C930.115 419.5 919.5 408.885 919.5 395.375C919.5 381.865 930.115 371.25 943.625 371.25C957.135 371.25 967.75 381.865 967.75 395.375C967.75 408.885 957.135 419.5 943.625 419.5ZM798.875 419.5C785.365 419.5 774.75 408.885 774.75 395.375C774.75 381.865 785.365 371.25 798.875 371.25C812.385 371.25 823 381.865 823 395.375C823 408.885 812.385 419.5 798.875 419.5ZM847.125 419.5C833.615 419.5 823 408.885 823 395.375C823 381.865 833.615 371.25 847.125 371.25C860.635 371.25 871.25 381.865 871.25 395.375C871.25 408.885 860.635 419.5 847.125 419.5ZM895.375 467.75C881.865 467.75 871.25 457.135 871.25 443.625C871.25 430.115 881.865 419.5 895.375 419.5C908.885 419.5 919.5 430.115 919.5 443.625C919.5 457.135 908.885 467.75 895.375 467.75ZM943.625 467.75C930.115 467.75 919.5 457.135 919.5 443.625C919.5 430.115 930.115 419.5 943.625 419.5C957.135 419.5 967.75 430.115 967.75 443.625C967.75 457.135 957.135 467.75 943.625 467.75ZM798.875 467.75C785.365 467.75 774.75 457.135 774.75 443.625C774.75 430.115 785.365 419.5 798.875 419.5C812.385 419.5 823 430.115 823 443.625C823 457.135 812.385 467.75 798.875 467.75ZM847.125 467.75C833.615 467.75 823 457.135 823 443.625C823 430.115 833.615 419.5 847.125 419.5C860.635 419.5 871.25 430.115 871.25 443.625C871.25 457.135 860.635 467.75 847.125 467.75ZM895.375 516C881.865 516 871.25 505.385 871.25 491.875C871.25 478.365 881.865 467.75 895.375 467.75C908.885 467.75 919.5 478.365 919.5 491.875C919.5 505.385 908.885 516 895.375 516ZM798.875 516C785.365 516 774.75 505.385 774.75 491.875C774.75 478.365 785.365 467.75 798.875 467.75C812.385 467.75 823 478.365 823 491.875C823 505.385 812.385 516 798.875 516ZM943.625 516C930.115 516 919.5 505.385 919.5 491.875C919.5 478.365 930.115 467.75 943.625 467.75C957.135 467.75 967.75 478.365 967.75 491.875C967.75 505.385 957.135 516 943.625 516ZM847.125 516C833.615 516 823 505.385 823 491.875C823 478.365 833.615 467.75 847.125 467.75C860.635 467.75 871.25 478.365 871.25 491.875C871.25 505.385 860.635 516 847.125 516ZM895.375 564.25C881.865 564.25 871.25 553.635 871.25 540.125C871.25 526.615 881.865 516 895.375 516C908.885 516 919.5 526.615 919.5 540.125C919.5 553.635 908.885 564.25 895.375 564.25ZM798.875 564.25C785.365 564.25 774.75 553.635 774.75 540.125C774.75 526.615 785.365 516 798.875 516C812.385 516 823 526.615 823 540.125C823 553.635 812.385 564.25 798.875 564.25ZM943.625 564.25C930.115 564.25 919.5 553.635 919.5 540.125C919.5 526.615 930.115 516 943.625 516C957.135 516 967.75 526.615 967.75 540.125C967.75 553.635 957.135 564.25 943.625 564.25ZM847.125 564.25C833.615 564.25 823 553.635 823 540.125C823 526.615 833.615 516 847.125 516C860.635 516 871.25 526.615 871.25 540.125C871.25 553.635 860.635 564.25 847.125 564.25ZM798.875 612.5C785.365 612.5 774.75 601.885 774.75 588.375C774.75 574.865 785.365 564.25 798.875 564.25C812.385 564.25 823 574.865 823 588.375C823 601.885 812.385 612.5 798.875 612.5ZM895.375 612.5C881.865 612.5 871.25 601.885 871.25 588.375C871.25 574.865 881.865 564.25 895.375 564.25C908.885 564.25 919.5 574.865 919.5 588.375C919.5 601.885 908.885 612.5 895.375 612.5ZM943.625 612.5C930.115 612.5 919.5 601.885 919.5 588.375C919.5 574.865 930.115 564.25 943.625 564.25C957.135 564.25 967.75 574.865 967.75 588.375C967.75 601.885 957.135 612.5 943.625 612.5ZM847.125 612.5C833.615 612.5 823 601.885 823 588.375C823 574.865 833.615 564.25 847.125 564.25C860.635 564.25 871.25 574.865 871.25 588.375C871.25 601.885 860.635 612.5 847.125 612.5ZM798.875 660.75C785.365 660.75 774.75 650.135 774.75 636.625C774.75 623.115 785.365 612.5 798.875 612.5C812.385 612.5 823 623.115 823 636.625C823 650.135 812.385 660.75 798.875 660.75ZM895.375 660.75C881.865 660.75 871.25 650.135 871.25 636.625C871.25 623.115 881.865 612.5 895.375 612.5C908.885 612.5 919.5 623.115 919.5 636.625C919.5 650.135 908.885 660.75 895.375 660.75ZM943.625 660.75C930.115 660.75 919.5 650.135 919.5 636.625C919.5 623.115 930.115 612.5 943.625 612.5C957.135 612.5 967.75 623.115 967.75 636.625C967.75 650.135 957.135 660.75 943.625 660.75ZM847.125 660.75C833.615 660.75 823 650.135 823 636.625C823 623.115 833.615 612.5 847.125 612.5C860.635 612.5 871.25 623.115 871.25 636.625C871.25 650.135 860.635 660.75 847.125 660.75ZM895.375 709C881.865 709 871.25 698.385 871.25 684.875C871.25 671.365 881.865 660.75 895.375 660.75C908.885 660.75 919.5 671.365 919.5 684.875C919.5 698.385 908.885 709 895.375 709ZM798.875 709C785.365 709 774.75 698.385 774.75 684.875C774.75 671.365 785.365 660.75 798.875 660.75C812.385 660.75 823 671.365 823 684.875C823 698.385 812.385 709 798.875 709ZM943.625 709C930.115 709 919.5 698.385 919.5 684.875C919.5 671.365 930.115 660.75 943.625 660.75C957.135 660.75 967.75 671.365 967.75 684.875C967.75 698.385 957.135 709 943.625 709ZM847.125 709C833.615 709 823 698.385 823 684.875C823 671.365 833.615 660.75 847.125 660.75C860.635 660.75 871.25 671.365 871.25 684.875C871.25 698.385 860.635 709 847.125 709ZM3066.62 274.75C3053.11 274.75 3042.5 264.135 3042.5 250.625C3042.5 237.115 3053.11 226.5 3066.62 226.5C3080.13 226.5 3090.75 237.115 3090.75 250.625C3090.75 264.135 3080.13 274.75 3066.62 274.75ZM3018.38 274.75C3004.87 274.75 2994.25 264.135 2994.25 250.625C2994.25 237.115 3004.87 226.5 3018.38 226.5C3031.88 226.5 3042.5 237.115 3042.5 250.625C3042.5 264.135 3031.88 274.75 3018.38 274.75ZM2970.12 274.75C2956.62 274.75 2946 264.135 2946 250.625C2946 237.115 2956.62 226.5 2970.12 226.5C2983.63 226.5 2994.25 237.115 2994.25 250.625C2994.25 264.135 2983.63 274.75 2970.12 274.75ZM3066.62 323C3053.11 323 3042.5 312.385 3042.5 298.875C3042.5 285.365 3053.11 274.75 3066.62 274.75C3080.13 274.75 3090.75 285.365 3090.75 298.875C3090.75 312.385 3080.13 323 3066.62 323ZM2921.88 323C2908.37 323 2897.75 312.385 2897.75 298.875C2897.75 285.365 2908.37 274.75 2921.88 274.75C2935.38 274.75 2946 285.365 2946 298.875C2946 312.385 2935.38 323 2921.88 323ZM3018.38 323C3004.87 323 2994.25 312.385 2994.25 298.875C2994.25 285.365 3004.87 274.75 3018.38 274.75C3031.88 274.75 3042.5 285.365 3042.5 298.875C3042.5 312.385 3031.88 323 3018.38 323ZM2970.12 323C2956.62 323 2946 312.385 2946 298.875C2946 285.365 2956.62 274.75 2970.12 274.75C2983.63 274.75 2994.25 285.365 2994.25 298.875C2994.25 312.385 2983.63 323 2970.12 323ZM3211.38 371.25C3197.86 371.25 3187.25 360.635 3187.25 347.125C3187.25 333.615 3197.86 323 3211.38 323C3224.88 323 3235.5 333.615 3235.5 347.125C3235.5 360.635 3224.88 371.25 3211.38 371.25ZM2921.88 371.25C2908.37 371.25 2897.75 360.635 2897.75 347.125C2897.75 333.615 2908.37 323 2921.88 323C2935.38 323 2946 333.615 2946 347.125C2946 360.635 2935.38 371.25 2921.88 371.25ZM2970.12 371.25C2956.62 371.25 2946 360.635 2946 347.125C2946 333.615 2956.62 323 2970.12 323C2983.63 323 2994.25 333.615 2994.25 347.125C2994.25 360.635 2983.63 371.25 2970.12 371.25ZM3018.38 371.25C3004.87 371.25 2994.25 360.635 2994.25 347.125C2994.25 333.615 3004.87 323 3018.38 323C3031.88 323 3042.5 333.615 3042.5 347.125C3042.5 360.635 3031.88 371.25 3018.38 371.25ZM2873.62 371.25C2860.11 371.25 2849.5 360.635 2849.5 347.125C2849.5 333.615 2860.11 323 2873.62 323C2887.13 323 2897.75 333.615 2897.75 347.125C2897.75 360.635 2887.13 371.25 2873.62 371.25ZM3163.12 371.25C3149.61 371.25 3139 360.635 3139 347.125C3139 333.615 3149.61 323 3163.12 323C3176.63 323 3187.25 333.615 3187.25 347.125C3187.25 360.635 3176.63 371.25 3163.12 371.25ZM3114.88 371.25C3101.36 371.25 3090.75 360.635 3090.75 347.125C3090.75 333.615 3101.36 323 3114.88 323C3128.38 323 3139 333.615 3139 347.125C3139 360.635 3128.38 371.25 3114.88 371.25ZM3066.62 371.25C3053.11 371.25 3042.5 360.635 3042.5 347.125C3042.5 333.615 3053.11 323 3066.62 323C3080.13 323 3090.75 333.615 3090.75 347.125C3090.75 360.635 3080.13 371.25 3066.62 371.25ZM3163.12 419.5C3149.61 419.5 3139 408.885 3139 395.375C3139 381.865 3149.61 371.25 3163.12 371.25C3176.63 371.25 3187.25 381.865 3187.25 395.375C3187.25 408.885 3176.63 419.5 3163.12 419.5ZM3114.88 419.5C3101.36 419.5 3090.75 408.885 3090.75 395.375C3090.75 381.865 3101.36 371.25 3114.88 371.25C3128.38 371.25 3139 381.865 3139 395.375C3139 408.885 3128.38 419.5 3114.88 419.5ZM2921.88 419.5C2908.37 419.5 2897.75 408.885 2897.75 395.375C2897.75 381.865 2908.37 371.25 2921.88 371.25C2935.38 371.25 2946 381.865 2946 395.375C2946 408.885 2935.38 419.5 2921.88 419.5ZM2873.62 419.5C2860.11 419.5 2849.5 408.885 2849.5 395.375C2849.5 381.865 2860.11 371.25 2873.62 371.25C2887.13 371.25 2897.75 381.865 2897.75 395.375C2897.75 408.885 2887.13 419.5 2873.62 419.5ZM3066.62 419.5C3053.11 419.5 3042.5 408.885 3042.5 395.375C3042.5 381.865 3053.11 371.25 3066.62 371.25C3080.13 371.25 3090.75 381.865 3090.75 395.375C3090.75 408.885 3080.13 419.5 3066.62 419.5ZM2970.12 419.5C2956.62 419.5 2946 408.885 2946 395.375C2946 381.865 2956.62 371.25 2970.12 371.25C2983.63 371.25 2994.25 381.865 2994.25 395.375C2994.25 408.885 2983.63 419.5 2970.12 419.5ZM2825.38 419.5C2811.87 419.5 2801.25 408.885 2801.25 395.375C2801.25 381.865 2811.87 371.25 2825.38 371.25C2838.89 371.25 2849.5 381.865 2849.5 395.375C2849.5 408.885 2838.89 419.5 2825.38 419.5ZM3018.38 419.5C3004.87 419.5 2994.25 408.885 2994.25 395.375C2994.25 381.865 3004.87 371.25 3018.38 371.25C3031.88 371.25 3042.5 381.865 3042.5 395.375C3042.5 408.885 3031.88 419.5 3018.38 419.5ZM3066.62 467.75C3053.11 467.75 3042.5 457.135 3042.5 443.625C3042.5 430.115 3053.11 419.5 3066.62 419.5C3080.13 419.5 3090.75 430.115 3090.75 443.625C3090.75 457.135 3080.13 467.75 3066.62 467.75ZM3018.38 467.75C3004.87 467.75 2994.25 457.135 2994.25 443.625C2994.25 430.115 3004.87 419.5 3018.38 419.5C3031.88 419.5 3042.5 430.115 3042.5 443.625C3042.5 457.135 3031.88 467.75 3018.38 467.75ZM2970.12 467.75C2956.62 467.75 2946 457.135 2946 443.625C2946 430.115 2956.62 419.5 2970.12 419.5C2983.63 419.5 2994.25 430.115 2994.25 443.625C2994.25 457.135 2983.63 467.75 2970.12 467.75ZM2921.88 467.75C2908.37 467.75 2897.75 457.135 2897.75 443.625C2897.75 430.115 2908.37 419.5 2921.88 419.5C2935.38 419.5 2946 430.115 2946 443.625C2946 457.135 2935.38 467.75 2921.88 467.75ZM2921.88 516C2908.37 516 2897.75 505.385 2897.75 491.875C2897.75 478.365 2908.37 467.75 2921.88 467.75C2935.38 467.75 2946 478.365 2946 491.875C2946 505.385 2935.38 516 2921.88 516ZM2970.12 516C2956.62 516 2946 505.385 2946 491.875C2946 478.365 2956.62 467.75 2970.12 467.75C2983.63 467.75 2994.25 478.365 2994.25 491.875C2994.25 505.385 2983.63 516 2970.12 516ZM3018.38 516C3004.87 516 2994.25 505.385 2994.25 491.875C2994.25 478.365 3004.87 467.75 3018.38 467.75C3031.88 467.75 3042.5 478.365 3042.5 491.875C3042.5 505.385 3031.88 516 3018.38 516ZM3066.62 516C3053.11 516 3042.5 505.385 3042.5 491.875C3042.5 478.365 3053.11 467.75 3066.62 467.75C3080.13 467.75 3090.75 478.365 3090.75 491.875C3090.75 505.385 3080.13 516 3066.62 516ZM3018.38 564.25C3004.87 564.25 2994.25 553.635 2994.25 540.125C2994.25 526.615 3004.87 516 3018.38 516C3031.88 516 3042.5 526.615 3042.5 540.125C3042.5 553.635 3031.88 564.25 3018.38 564.25ZM3066.62 564.25C3053.11 564.25 3042.5 553.635 3042.5 540.125C3042.5 526.615 3053.11 516 3066.62 516C3080.13 516 3090.75 526.615 3090.75 540.125C3090.75 553.635 3080.13 564.25 3066.62 564.25ZM2921.88 564.25C2908.37 564.25 2897.75 553.635 2897.75 540.125C2897.75 526.615 2908.37 516 2921.88 516C2935.38 516 2946 526.615 2946 540.125C2946 553.635 2935.38 564.25 2921.88 564.25ZM2970.12 564.25C2956.62 564.25 2946 553.635 2946 540.125C2946 526.615 2956.62 516 2970.12 516C2983.63 516 2994.25 526.615 2994.25 540.125C2994.25 553.635 2983.63 564.25 2970.12 564.25ZM3066.62 612.5C3053.11 612.5 3042.5 601.885 3042.5 588.375C3042.5 574.865 3053.11 564.25 3066.62 564.25C3080.13 564.25 3090.75 574.865 3090.75 588.375C3090.75 601.885 3080.13 612.5 3066.62 612.5ZM3018.38 612.5C3004.87 612.5 2994.25 601.885 2994.25 588.375C2994.25 574.865 3004.87 564.25 3018.38 564.25C3031.88 564.25 3042.5 574.865 3042.5 588.375C3042.5 601.885 3031.88 612.5 3018.38 612.5ZM2921.88 612.5C2908.37 612.5 2897.75 601.885 2897.75 588.375C2897.75 574.865 2908.37 564.25 2921.88 564.25C2935.38 564.25 2946 574.865 2946 588.375C2946 601.885 2935.38 612.5 2921.88 612.5ZM2970.12 612.5C2956.62 612.5 2946 601.885 2946 588.375C2946 574.865 2956.62 564.25 2970.12 564.25C2983.63 564.25 2994.25 574.865 2994.25 588.375C2994.25 601.885 2983.63 612.5 2970.12 612.5ZM3163.12 660.75C3149.61 660.75 3139 650.135 3139 636.625C3139 623.115 3149.61 612.5 3163.12 612.5C3176.63 612.5 3187.25 623.115 3187.25 636.625C3187.25 650.135 3176.63 660.75 3163.12 660.75ZM3114.88 660.75C3101.36 660.75 3090.75 650.135 3090.75 636.625C3090.75 623.115 3101.36 612.5 3114.88 612.5C3128.38 612.5 3139 623.115 3139 636.625C3139 650.135 3128.38 660.75 3114.88 660.75ZM3066.62 660.75C3053.11 660.75 3042.5 650.135 3042.5 636.625C3042.5 623.115 3053.11 612.5 3066.62 612.5C3080.13 612.5 3090.75 623.115 3090.75 636.625C3090.75 650.135 3080.13 660.75 3066.62 660.75ZM3018.38 660.75C3004.87 660.75 2994.25 650.135 2994.25 636.625C2994.25 623.115 3004.87 612.5 3018.38 612.5C3031.88 612.5 3042.5 623.115 3042.5 636.625C3042.5 650.135 3031.88 660.75 3018.38 660.75ZM2921.88 660.75C2908.37 660.75 2897.75 650.135 2897.75 636.625C2897.75 623.115 2908.37 612.5 2921.88 612.5C2935.38 612.5 2946 623.115 2946 636.625C2946 650.135 2935.38 660.75 2921.88 660.75ZM2970.12 660.75C2956.62 660.75 2946 650.135 2946 636.625C2946 623.115 2956.62 612.5 2970.12 612.5C2983.63 612.5 2994.25 623.115 2994.25 636.625C2994.25 650.135 2983.63 660.75 2970.12 660.75ZM3211.38 660.75C3197.86 660.75 3187.25 650.135 3187.25 636.625C3187.25 623.115 3197.86 612.5 3211.38 612.5C3224.88 612.5 3235.5 623.115 3235.5 636.625C3235.5 650.135 3224.88 660.75 3211.38 660.75ZM3114.88 709C3101.36 709 3090.75 698.385 3090.75 684.875C3090.75 671.365 3101.36 660.75 3114.88 660.75C3128.38 660.75 3139 671.365 3139 684.875C3139 698.385 3128.38 709 3114.88 709ZM3066.62 709C3053.11 709 3042.5 698.385 3042.5 684.875C3042.5 671.365 3053.11 660.75 3066.62 660.75C3080.13 660.75 3090.75 671.365 3090.75 684.875C3090.75 698.385 3080.13 709 3066.62 709ZM3018.38 709C3004.87 709 2994.25 698.385 2994.25 684.875C2994.25 671.365 3004.87 660.75 3018.38 660.75C3031.88 660.75 3042.5 671.365 3042.5 684.875C3042.5 698.385 3031.88 709 3018.38 709ZM2970.12 709C2956.62 709 2946 698.385 2946 684.875C2946 671.365 2956.62 660.75 2970.12 660.75C2983.63 660.75 2994.25 671.365 2994.25 684.875C2994.25 698.385 2983.63 709 2970.12 709ZM3163.12 709C3149.61 709 3139 698.385 3139 684.875C3139 671.365 3149.61 660.75 3163.12 660.75C3176.63 660.75 3187.25 671.365 3187.25 684.875C3187.25 698.385 3176.63 709 3163.12 709ZM3597.38 564.25C3583.86 564.25 3573.25 553.635 3573.25 540.125C3573.25 526.615 3583.86 516 3597.38 516C3610.88 516 3621.5 526.615 3621.5 540.125C3621.5 553.635 3610.88 564.25 3597.38 564.25ZM3693.88 564.25C3680.37 564.25 3669.75 553.635 3669.75 540.125C3669.75 526.615 3680.37 516 3693.88 516C3707.38 516 3718 526.615 3718 540.125C3718 553.635 3707.38 564.25 3693.88 564.25ZM3645.62 564.25C3632.12 564.25 3621.5 553.635 3621.5 540.125C3621.5 526.615 3632.12 516 3645.62 516C3659.13 516 3669.75 526.615 3669.75 540.125C3669.75 553.635 3659.13 564.25 3645.62 564.25ZM3742.12 564.25C3728.62 564.25 3718 553.635 3718 540.125C3718 526.615 3728.62 516 3742.12 516C3755.63 516 3766.25 526.615 3766.25 540.125C3766.25 553.635 3755.63 564.25 3742.12 564.25ZM3597.38 612.5C3583.86 612.5 3573.25 601.885 3573.25 588.375C3573.25 574.865 3583.86 564.25 3597.38 564.25C3610.88 564.25 3621.5 574.865 3621.5 588.375C3621.5 601.885 3610.88 612.5 3597.38 612.5ZM3645.62 612.5C3632.12 612.5 3621.5 601.885 3621.5 588.375C3621.5 574.865 3632.12 564.25 3645.62 564.25C3659.13 564.25 3669.75 574.865 3669.75 588.375C3669.75 601.885 3659.13 612.5 3645.62 612.5ZM3693.88 612.5C3680.37 612.5 3669.75 601.885 3669.75 588.375C3669.75 574.865 3680.37 564.25 3693.88 564.25C3707.38 564.25 3718 574.865 3718 588.375C3718 601.885 3707.38 612.5 3693.88 612.5ZM3742.12 612.5C3728.62 612.5 3718 601.885 3718 588.375C3718 574.865 3728.62 564.25 3742.12 564.25C3755.63 564.25 3766.25 574.865 3766.25 588.375C3766.25 601.885 3755.63 612.5 3742.12 612.5ZM3597.38 660.75C3583.86 660.75 3573.25 650.135 3573.25 636.625C3573.25 623.115 3583.86 612.5 3597.38 612.5C3610.88 612.5 3621.5 623.115 3621.5 636.625C3621.5 650.135 3610.88 660.75 3597.38 660.75ZM3645.62 660.75C3632.12 660.75 3621.5 650.135 3621.5 636.625C3621.5 623.115 3632.12 612.5 3645.62 612.5C3659.13 612.5 3669.75 623.115 3669.75 636.625C3669.75 650.135 3659.13 660.75 3645.62 660.75ZM3693.88 660.75C3680.37 660.75 3669.75 650.135 3669.75 636.625C3669.75 623.115 3680.37 612.5 3693.88 612.5C3707.38 612.5 3718 623.115 3718 636.625C3718 650.135 3707.38 660.75 3693.88 660.75ZM3742.12 660.75C3728.62 660.75 3718 650.135 3718 636.625C3718 623.115 3728.62 612.5 3742.12 612.5C3755.63 612.5 3766.25 623.115 3766.25 636.625C3766.25 650.135 3755.63 660.75 3742.12 660.75ZM3597.38 709C3583.86 709 3573.25 698.385 3573.25 684.875C3573.25 671.365 3583.86 660.75 3597.38 660.75C3610.88 660.75 3621.5 671.365 3621.5 684.875C3621.5 698.385 3610.88 709 3597.38 709ZM3645.62 709C3632.12 709 3621.5 698.385 3621.5 684.875C3621.5 671.365 3632.12 660.75 3645.62 660.75C3659.13 660.75 3669.75 671.365 3669.75 684.875C3669.75 698.385 3659.13 709 3645.62 709ZM3693.88 709C3680.37 709 3669.75 698.385 3669.75 684.875C3669.75 671.365 3680.37 660.75 3693.88 660.75C3707.38 660.75 3718 671.365 3718 684.875C3718 698.385 3707.38 709 3693.88 709ZM3742.12 709C3728.62 709 3718 698.385 3718 684.875C3718 671.365 3728.62 660.75 3742.12 660.75C3755.63 660.75 3766.25 671.365 3766.25 684.875C3766.25 698.385 3755.63 709 3742.12 709Z" fill="#BC2CFF"/>
<path d="M1184.88 371.25C1171.36 371.25 1160.75 360.635 1160.75 347.125C1160.75 333.615 1171.36 323 1184.88 323C1198.38 323 1209 333.615 1209 347.125C1209 360.635 1198.38 371.25 1184.88 371.25ZM1233.12 371.25C1219.62 371.25 1209 360.635 1209 347.125C1209 333.615 1219.62 323 1233.12 323C1246.63 323 1257.25 333.615 1257.25 347.125C1257.25 360.635 1246.63 371.25 1233.12 371.25ZM1281.38 371.25C1267.87 371.25 1257.25 360.635 1257.25 347.125C1257.25 333.615 1267.87 323 1281.38 323C1294.88 323 1305.5 333.615 1305.5 347.125C1305.5 360.635 1294.88 371.25 1281.38 371.25ZM1329.62 371.25C1316.12 371.25 1305.5 360.635 1305.5 347.125C1305.5 333.615 1316.12 323 1329.62 323C1343.13 323 1353.75 333.615 1353.75 347.125C1353.75 360.635 1343.13 371.25 1329.62 371.25ZM1860.38 371.25C1846.86 371.25 1836.25 360.635 1836.25 347.125C1836.25 333.615 1846.86 323 1860.38 323C1873.88 323 1884.5 333.615 1884.5 347.125C1884.5 360.635 1873.88 371.25 1860.38 371.25ZM1812.12 371.25C1798.61 371.25 1788 360.635 1788 347.125C1788 333.615 1798.61 323 1812.12 323C1825.63 323 1836.25 333.615 1836.25 347.125C1836.25 360.635 1825.63 371.25 1812.12 371.25ZM1763.88 371.25C1750.36 371.25 1739.75 360.635 1739.75 347.125C1739.75 333.615 1750.36 323 1763.88 323C1777.38 323 1788 333.615 1788 347.125C1788 360.635 1777.38 371.25 1763.88 371.25ZM1715.62 371.25C1702.11 371.25 1691.5 360.635 1691.5 347.125C1691.5 333.615 1702.11 323 1715.62 323C1729.13 323 1739.75 333.615 1739.75 347.125C1739.75 360.635 1729.13 371.25 1715.62 371.25ZM1619.12 371.25C1605.62 371.25 1595 360.635 1595 347.125C1595 333.615 1605.62 323 1619.12 323C1632.63 323 1643.25 333.615 1643.25 347.125C1643.25 360.635 1632.63 371.25 1619.12 371.25ZM1570.88 371.25C1557.37 371.25 1546.75 360.635 1546.75 347.125C1546.75 333.615 1557.37 323 1570.88 323C1584.38 323 1595 333.615 1595 347.125C1595 360.635 1584.38 371.25 1570.88 371.25ZM1522.62 371.25C1509.11 371.25 1498.5 360.635 1498.5 347.125C1498.5 333.615 1509.11 323 1522.62 323C1536.13 323 1546.75 333.615 1546.75 347.125C1546.75 360.635 1536.13 371.25 1522.62 371.25ZM1474.38 371.25C1460.86 371.25 1450.25 360.635 1450.25 347.125C1450.25 333.615 1460.86 323 1474.38 323C1487.88 323 1498.5 333.615 1498.5 347.125C1498.5 360.635 1487.88 371.25 1474.38 371.25ZM1426.12 371.25C1412.61 371.25 1402 360.635 1402 347.125C1402 333.615 1412.61 323 1426.12 323C1439.63 323 1450.25 333.615 1450.25 347.125C1450.25 360.635 1439.63 371.25 1426.12 371.25ZM1184.88 419.5C1171.36 419.5 1160.75 408.885 1160.75 395.375C1160.75 381.865 1171.36 371.25 1184.88 371.25C1198.38 371.25 1209 381.865 1209 395.375C1209 408.885 1198.38 419.5 1184.88 419.5ZM1812.12 419.5C1798.61 419.5 1788 408.885 1788 395.375C1788 381.865 1798.61 371.25 1812.12 371.25C1825.63 371.25 1836.25 381.865 1836.25 395.375C1836.25 408.885 1825.63 419.5 1812.12 419.5ZM1667.38 419.5C1653.86 419.5 1643.25 408.885 1643.25 395.375C1643.25 381.865 1653.86 371.25 1667.38 371.25C1680.88 371.25 1691.5 381.865 1691.5 395.375C1691.5 408.885 1680.88 419.5 1667.38 419.5ZM1715.62 419.5C1702.11 419.5 1691.5 408.885 1691.5 395.375C1691.5 381.865 1702.11 371.25 1715.62 371.25C1729.13 371.25 1739.75 381.865 1739.75 395.375C1739.75 408.885 1729.13 419.5 1715.62 419.5ZM1281.38 419.5C1267.87 419.5 1257.25 408.885 1257.25 395.375C1257.25 381.865 1267.87 371.25 1281.38 371.25C1294.88 371.25 1305.5 381.865 1305.5 395.375C1305.5 408.885 1294.88 419.5 1281.38 419.5ZM1860.38 419.5C1846.86 419.5 1836.25 408.885 1836.25 395.375C1836.25 381.865 1846.86 371.25 1860.38 371.25C1873.88 371.25 1884.5 381.865 1884.5 395.375C1884.5 408.885 1873.88 419.5 1860.38 419.5ZM1763.88 419.5C1750.36 419.5 1739.75 408.885 1739.75 395.375C1739.75 381.865 1750.36 371.25 1763.88 371.25C1777.38 371.25 1788 381.865 1788 395.375C1788 408.885 1777.38 419.5 1763.88 419.5ZM1329.62 419.5C1316.12 419.5 1305.5 408.885 1305.5 395.375C1305.5 381.865 1316.12 371.25 1329.62 371.25C1343.13 371.25 1353.75 381.865 1353.75 395.375C1353.75 408.885 1343.13 419.5 1329.62 419.5ZM1233.12 419.5C1219.62 419.5 1209 408.885 1209 395.375C1209 381.865 1219.62 371.25 1233.12 371.25C1246.63 371.25 1257.25 381.865 1257.25 395.375C1257.25 408.885 1246.63 419.5 1233.12 419.5ZM1377.88 419.5C1364.36 419.5 1353.75 408.885 1353.75 395.375C1353.75 381.865 1364.36 371.25 1377.88 371.25C1391.38 371.25 1402 381.865 1402 395.375C1402 408.885 1391.38 419.5 1377.88 419.5ZM1908.62 419.5C1895.11 419.5 1884.5 408.885 1884.5 395.375C1884.5 381.865 1895.11 371.25 1908.62 371.25C1922.13 371.25 1932.75 381.865 1932.75 395.375C1932.75 408.885 1922.13 419.5 1908.62 419.5ZM1426.12 419.5C1412.61 419.5 1402 408.885 1402 395.375C1402 381.865 1412.61 371.25 1426.12 371.25C1439.63 371.25 1450.25 381.865 1450.25 395.375C1450.25 408.885 1439.63 419.5 1426.12 419.5ZM1619.12 419.5C1605.62 419.5 1595 408.885 1595 395.375C1595 381.865 1605.62 371.25 1619.12 371.25C1632.63 371.25 1643.25 381.865 1643.25 395.375C1643.25 408.885 1632.63 419.5 1619.12 419.5ZM1570.88 419.5C1557.37 419.5 1546.75 408.885 1546.75 395.375C1546.75 381.865 1557.37 371.25 1570.88 371.25C1584.38 371.25 1595 381.865 1595 395.375C1595 408.885 1584.38 419.5 1570.88 419.5ZM1522.62 419.5C1509.11 419.5 1498.5 408.885 1498.5 395.375C1498.5 381.865 1509.11 371.25 1522.62 371.25C1536.13 371.25 1546.75 381.865 1546.75 395.375C1546.75 408.885 1536.13 419.5 1522.62 419.5ZM1474.38 419.5C1460.86 419.5 1450.25 408.885 1450.25 395.375C1450.25 381.865 1460.86 371.25 1474.38 371.25C1487.88 371.25 1498.5 381.865 1498.5 395.375C1498.5 408.885 1487.88 419.5 1474.38 419.5ZM1812.12 467.75C1798.61 467.75 1788 457.135 1788 443.625C1788 430.115 1798.61 419.5 1812.12 419.5C1825.63 419.5 1836.25 430.115 1836.25 443.625C1836.25 457.135 1825.63 467.75 1812.12 467.75ZM1908.62 467.75C1895.11 467.75 1884.5 457.135 1884.5 443.625C1884.5 430.115 1895.11 419.5 1908.62 419.5C1922.13 419.5 1932.75 430.115 1932.75 443.625C1932.75 457.135 1922.13 467.75 1908.62 467.75ZM1281.38 467.75C1267.87 467.75 1257.25 457.135 1257.25 443.625C1257.25 430.115 1267.87 419.5 1281.38 419.5C1294.88 419.5 1305.5 430.115 1305.5 443.625C1305.5 457.135 1294.88 467.75 1281.38 467.75ZM1184.88 467.75C1171.36 467.75 1160.75 457.135 1160.75 443.625C1160.75 430.115 1171.36 419.5 1184.88 419.5C1198.38 419.5 1209 430.115 1209 443.625C1209 457.135 1198.38 467.75 1184.88 467.75ZM1860.38 467.75C1846.86 467.75 1836.25 457.135 1836.25 443.625C1836.25 430.115 1846.86 419.5 1860.38 419.5C1873.88 419.5 1884.5 430.115 1884.5 443.625C1884.5 457.135 1873.88 467.75 1860.38 467.75ZM1763.88 467.75C1750.36 467.75 1739.75 457.135 1739.75 443.625C1739.75 430.115 1750.36 419.5 1763.88 419.5C1777.38 419.5 1788 430.115 1788 443.625C1788 457.135 1777.38 467.75 1763.88 467.75ZM1329.62 467.75C1316.12 467.75 1305.5 457.135 1305.5 443.625C1305.5 430.115 1316.12 419.5 1329.62 419.5C1343.13 419.5 1353.75 430.115 1353.75 443.625C1353.75 457.135 1343.13 467.75 1329.62 467.75ZM1570.88 467.75C1557.37 467.75 1546.75 457.135 1546.75 443.625C1546.75 430.115 1557.37 419.5 1570.88 419.5C1584.38 419.5 1595 430.115 1595 443.625C1595 457.135 1584.38 467.75 1570.88 467.75ZM1233.12 467.75C1219.62 467.75 1209 457.135 1209 443.625C1209 430.115 1219.62 419.5 1233.12 419.5C1246.63 419.5 1257.25 430.115 1257.25 443.625C1257.25 457.135 1246.63 467.75 1233.12 467.75ZM1474.38 467.75C1460.86 467.75 1450.25 457.135 1450.25 443.625C1450.25 430.115 1460.86 419.5 1474.38 419.5C1487.88 419.5 1498.5 430.115 1498.5 443.625C1498.5 457.135 1487.88 467.75 1474.38 467.75ZM1619.12 467.75C1605.62 467.75 1595 457.135 1595 443.625C1595 430.115 1605.62 419.5 1619.12 419.5C1632.63 419.5 1643.25 430.115 1643.25 443.625C1643.25 457.135 1632.63 467.75 1619.12 467.75ZM1522.62 467.75C1509.11 467.75 1498.5 457.135 1498.5 443.625C1498.5 430.115 1509.11 419.5 1522.62 419.5C1536.13 419.5 1546.75 430.115 1546.75 443.625C1546.75 457.135 1536.13 467.75 1522.62 467.75ZM1522.62 516C1509.11 516 1498.5 505.385 1498.5 491.875C1498.5 478.365 1509.11 467.75 1522.62 467.75C1536.13 467.75 1546.75 478.365 1546.75 491.875C1546.75 505.385 1536.13 516 1522.62 516ZM1619.12 516C1605.62 516 1595 505.385 1595 491.875C1595 478.365 1605.62 467.75 1619.12 467.75C1632.63 467.75 1643.25 478.365 1643.25 491.875C1643.25 505.385 1632.63 516 1619.12 516ZM1812.12 516C1798.61 516 1788 505.385 1788 491.875C1788 478.365 1798.61 467.75 1812.12 467.75C1825.63 467.75 1836.25 478.365 1836.25 491.875C1836.25 505.385 1825.63 516 1812.12 516ZM1281.38 516C1267.87 516 1257.25 505.385 1257.25 491.875C1257.25 478.365 1267.87 467.75 1281.38 467.75C1294.88 467.75 1305.5 478.365 1305.5 491.875C1305.5 505.385 1294.88 516 1281.38 516ZM1233.12 516C1219.62 516 1209 505.385 1209 491.875C1209 478.365 1219.62 467.75 1233.12 467.75C1246.63 467.75 1257.25 478.365 1257.25 491.875C1257.25 505.385 1246.63 516 1233.12 516ZM1908.62 516C1895.11 516 1884.5 505.385 1884.5 491.875C1884.5 478.365 1895.11 467.75 1908.62 467.75C1922.13 467.75 1932.75 478.365 1932.75 491.875C1932.75 505.385 1922.13 516 1908.62 516ZM1860.38 516C1846.86 516 1836.25 505.385 1836.25 491.875C1836.25 478.365 1846.86 467.75 1860.38 467.75C1873.88 467.75 1884.5 478.365 1884.5 491.875C1884.5 505.385 1873.88 516 1860.38 516ZM1329.62 516C1316.12 516 1305.5 505.385 1305.5 491.875C1305.5 478.365 1316.12 467.75 1329.62 467.75C1343.13 467.75 1353.75 478.365 1353.75 491.875C1353.75 505.385 1343.13 516 1329.62 516ZM1474.38 516C1460.86 516 1450.25 505.385 1450.25 491.875C1450.25 478.365 1460.86 467.75 1474.38 467.75C1487.88 467.75 1498.5 478.365 1498.5 491.875C1498.5 505.385 1487.88 516 1474.38 516ZM1763.88 516C1750.36 516 1739.75 505.385 1739.75 491.875C1739.75 478.365 1750.36 467.75 1763.88 467.75C1777.38 467.75 1788 478.365 1788 491.875C1788 505.385 1777.38 516 1763.88 516ZM1184.88 516C1171.36 516 1160.75 505.385 1160.75 491.875C1160.75 478.365 1171.36 467.75 1184.88 467.75C1198.38 467.75 1209 478.365 1209 491.875C1209 505.385 1198.38 516 1184.88 516ZM1570.88 516C1557.37 516 1546.75 505.385 1546.75 491.875C1546.75 478.365 1557.37 467.75 1570.88 467.75C1584.38 467.75 1595 478.365 1595 491.875C1595 505.385 1584.38 516 1570.88 516ZM1570.88 564.25C1557.37 564.25 1546.75 553.635 1546.75 540.125C1546.75 526.615 1557.37 516 1570.88 516C1584.38 516 1595 526.615 1595 540.125C1595 553.635 1584.38 564.25 1570.88 564.25ZM1908.62 564.25C1895.11 564.25 1884.5 553.635 1884.5 540.125C1884.5 526.615 1895.11 516 1908.62 516C1922.13 516 1932.75 526.615 1932.75 540.125C1932.75 553.635 1922.13 564.25 1908.62 564.25ZM1474.38 564.25C1460.86 564.25 1450.25 553.635 1450.25 540.125C1450.25 526.615 1460.86 516 1474.38 516C1487.88 516 1498.5 526.615 1498.5 540.125C1498.5 553.635 1487.88 564.25 1474.38 564.25ZM1522.62 564.25C1509.11 564.25 1498.5 553.635 1498.5 540.125C1498.5 526.615 1509.11 516 1522.62 516C1536.13 516 1546.75 526.615 1546.75 540.125C1546.75 553.635 1536.13 564.25 1522.62 564.25ZM1329.62 564.25C1316.12 564.25 1305.5 553.635 1305.5 540.125C1305.5 526.615 1316.12 516 1329.62 516C1343.13 516 1353.75 526.615 1353.75 540.125C1353.75 553.635 1343.13 564.25 1329.62 564.25ZM1860.38 564.25C1846.86 564.25 1836.25 553.635 1836.25 540.125C1836.25 526.615 1846.86 516 1860.38 516C1873.88 516 1884.5 526.615 1884.5 540.125C1884.5 553.635 1873.88 564.25 1860.38 564.25ZM1619.12 564.25C1605.62 564.25 1595 553.635 1595 540.125C1595 526.615 1605.62 516 1619.12 516C1632.63 516 1643.25 526.615 1643.25 540.125C1643.25 553.635 1632.63 564.25 1619.12 564.25ZM1184.88 564.25C1171.36 564.25 1160.75 553.635 1160.75 540.125C1160.75 526.615 1171.36 516 1184.88 516C1198.38 516 1209 526.615 1209 540.125C1209 553.635 1198.38 564.25 1184.88 564.25ZM1281.38 564.25C1267.87 564.25 1257.25 553.635 1257.25 540.125C1257.25 526.615 1267.87 516 1281.38 516C1294.88 516 1305.5 526.615 1305.5 540.125C1305.5 553.635 1294.88 564.25 1281.38 564.25ZM1812.12 564.25C1798.61 564.25 1788 553.635 1788 540.125C1788 526.615 1798.61 516 1812.12 516C1825.63 516 1836.25 526.615 1836.25 540.125C1836.25 553.635 1825.63 564.25 1812.12 564.25ZM1233.12 564.25C1219.62 564.25 1209 553.635 1209 540.125C1209 526.615 1219.62 516 1233.12 516C1246.63 516 1257.25 526.615 1257.25 540.125C1257.25 553.635 1246.63 564.25 1233.12 564.25ZM1763.88 564.25C1750.36 564.25 1739.75 553.635 1739.75 540.125C1739.75 526.615 1750.36 516 1763.88 516C1777.38 516 1788 526.615 1788 540.125C1788 553.635 1777.38 564.25 1763.88 564.25ZM1570.88 612.5C1557.37 612.5 1546.75 601.885 1546.75 588.375C1546.75 574.865 1557.37 564.25 1570.88 564.25C1584.38 564.25 1595 574.865 1595 588.375C1595 601.885 1584.38 612.5 1570.88 612.5ZM1474.38 612.5C1460.86 612.5 1450.25 601.885 1450.25 588.375C1450.25 574.865 1460.86 564.25 1474.38 564.25C1487.88 564.25 1498.5 574.865 1498.5 588.375C1498.5 601.885 1487.88 612.5 1474.38 612.5ZM1763.88 612.5C1750.36 612.5 1739.75 601.885 1739.75 588.375C1739.75 574.865 1750.36 564.25 1763.88 564.25C1777.38 564.25 1788 574.865 1788 588.375C1788 601.885 1777.38 612.5 1763.88 612.5ZM1184.88 612.5C1171.36 612.5 1160.75 601.885 1160.75 588.375C1160.75 574.865 1171.36 564.25 1184.88 564.25C1198.38 564.25 1209 574.865 1209 588.375C1209 601.885 1198.38 612.5 1184.88 612.5ZM1908.62 612.5C1895.11 612.5 1884.5 601.885 1884.5 588.375C1884.5 574.865 1895.11 564.25 1908.62 564.25C1922.13 564.25 1932.75 574.865 1932.75 588.375C1932.75 601.885 1922.13 612.5 1908.62 612.5ZM1329.62 612.5C1316.12 612.5 1305.5 601.885 1305.5 588.375C1305.5 574.865 1316.12 564.25 1329.62 564.25C1343.13 564.25 1353.75 574.865 1353.75 588.375C1353.75 601.885 1343.13 612.5 1329.62 612.5ZM1233.12 612.5C1219.62 612.5 1209 601.885 1209 588.375C1209 574.865 1219.62 564.25 1233.12 564.25C1246.63 564.25 1257.25 574.865 1257.25 588.375C1257.25 601.885 1246.63 612.5 1233.12 612.5ZM1619.12 612.5C1605.62 612.5 1595 601.885 1595 588.375C1595 574.865 1605.62 564.25 1619.12 564.25C1632.63 564.25 1643.25 574.865 1643.25 588.375C1643.25 601.885 1632.63 612.5 1619.12 612.5ZM1860.38 612.5C1846.86 612.5 1836.25 601.885 1836.25 588.375C1836.25 574.865 1846.86 564.25 1860.38 564.25C1873.88 564.25 1884.5 574.865 1884.5 588.375C1884.5 601.885 1873.88 612.5 1860.38 612.5ZM1281.38 612.5C1267.87 612.5 1257.25 601.885 1257.25 588.375C1257.25 574.865 1267.87 564.25 1281.38 564.25C1294.88 564.25 1305.5 574.865 1305.5 588.375C1305.5 601.885 1294.88 612.5 1281.38 612.5ZM1812.12 612.5C1798.61 612.5 1788 601.885 1788 588.375C1788 574.865 1798.61 564.25 1812.12 564.25C1825.63 564.25 1836.25 574.865 1836.25 588.375C1836.25 601.885 1825.63 612.5 1812.12 612.5ZM1522.62 612.5C1509.11 612.5 1498.5 601.885 1498.5 588.375C1498.5 574.865 1509.11 564.25 1522.62 564.25C1536.13 564.25 1546.75 574.865 1546.75 588.375C1546.75 601.885 1536.13 612.5 1522.62 612.5ZM1812.12 660.75C1798.61 660.75 1788 650.135 1788 636.625C1788 623.115 1798.61 612.5 1812.12 612.5C1825.63 612.5 1836.25 623.115 1836.25 636.625C1836.25 650.135 1825.63 660.75 1812.12 660.75ZM1860.38 660.75C1846.86 660.75 1836.25 650.135 1836.25 636.625C1836.25 623.115 1846.86 612.5 1860.38 612.5C1873.88 612.5 1884.5 623.115 1884.5 636.625C1884.5 650.135 1873.88 660.75 1860.38 660.75ZM1184.88 660.75C1171.36 660.75 1160.75 650.135 1160.75 636.625C1160.75 623.115 1171.36 612.5 1184.88 612.5C1198.38 612.5 1209 623.115 1209 636.625C1209 650.135 1198.38 660.75 1184.88 660.75ZM1908.62 660.75C1895.11 660.75 1884.5 650.135 1884.5 636.625C1884.5 623.115 1895.11 612.5 1908.62 612.5C1922.13 612.5 1932.75 623.115 1932.75 636.625C1932.75 650.135 1922.13 660.75 1908.62 660.75ZM1763.88 660.75C1750.36 660.75 1739.75 650.135 1739.75 636.625C1739.75 623.115 1750.36 612.5 1763.88 612.5C1777.38 612.5 1788 623.115 1788 636.625C1788 650.135 1777.38 660.75 1763.88 660.75ZM1619.12 660.75C1605.62 660.75 1595 650.135 1595 636.625C1595 623.115 1605.62 612.5 1619.12 612.5C1632.63 612.5 1643.25 623.115 1643.25 636.625C1643.25 650.135 1632.63 660.75 1619.12 660.75ZM1522.62 660.75C1509.11 660.75 1498.5 650.135 1498.5 636.625C1498.5 623.115 1509.11 612.5 1522.62 612.5C1536.13 612.5 1546.75 623.115 1546.75 636.625C1546.75 650.135 1536.13 660.75 1522.62 660.75ZM1474.38 660.75C1460.86 660.75 1450.25 650.135 1450.25 636.625C1450.25 623.115 1460.86 612.5 1474.38 612.5C1487.88 612.5 1498.5 623.115 1498.5 636.625C1498.5 650.135 1487.88 660.75 1474.38 660.75ZM1233.12 660.75C1219.62 660.75 1209 650.135 1209 636.625C1209 623.115 1219.62 612.5 1233.12 612.5C1246.63 612.5 1257.25 623.115 1257.25 636.625C1257.25 650.135 1246.63 660.75 1233.12 660.75ZM1329.62 660.75C1316.12 660.75 1305.5 650.135 1305.5 636.625C1305.5 623.115 1316.12 612.5 1329.62 612.5C1343.13 612.5 1353.75 623.115 1353.75 636.625C1353.75 650.135 1343.13 660.75 1329.62 660.75ZM1281.38 660.75C1267.87 660.75 1257.25 650.135 1257.25 636.625C1257.25 623.115 1267.87 612.5 1281.38 612.5C1294.88 612.5 1305.5 623.115 1305.5 636.625C1305.5 650.135 1294.88 660.75 1281.38 660.75ZM1570.88 660.75C1557.37 660.75 1546.75 650.135 1546.75 636.625C1546.75 623.115 1557.37 612.5 1570.88 612.5C1584.38 612.5 1595 623.115 1595 636.625C1595 650.135 1584.38 660.75 1570.88 660.75ZM1908.62 709C1895.11 709 1884.5 698.385 1884.5 684.875C1884.5 671.365 1895.11 660.75 1908.62 660.75C1922.13 660.75 1932.75 671.365 1932.75 684.875C1932.75 698.385 1922.13 709 1908.62 709ZM1812.12 709C1798.61 709 1788 698.385 1788 684.875C1788 671.365 1798.61 660.75 1812.12 660.75C1825.63 660.75 1836.25 671.365 1836.25 684.875C1836.25 698.385 1825.63 709 1812.12 709ZM1860.38 709C1846.86 709 1836.25 698.385 1836.25 684.875C1836.25 671.365 1846.86 660.75 1860.38 660.75C1873.88 660.75 1884.5 671.365 1884.5 684.875C1884.5 698.385 1873.88 709 1860.38 709ZM1281.38 709C1267.87 709 1257.25 698.385 1257.25 684.875C1257.25 671.365 1267.87 660.75 1281.38 660.75C1294.88 660.75 1305.5 671.365 1305.5 684.875C1305.5 698.385 1294.88 709 1281.38 709ZM1184.88 709C1171.36 709 1160.75 698.385 1160.75 684.875C1160.75 671.365 1171.36 660.75 1184.88 660.75C1198.38 660.75 1209 671.365 1209 684.875C1209 698.385 1198.38 709 1184.88 709ZM1763.88 709C1750.36 709 1739.75 698.385 1739.75 684.875C1739.75 671.365 1750.36 660.75 1763.88 660.75C1777.38 660.75 1788 671.365 1788 684.875C1788 698.385 1777.38 709 1763.88 709ZM1233.12 709C1219.62 709 1209 698.385 1209 684.875C1209 671.365 1219.62 660.75 1233.12 660.75C1246.63 660.75 1257.25 671.365 1257.25 684.875C1257.25 698.385 1246.63 709 1233.12 709ZM1619.12 709C1605.62 709 1595 698.385 1595 684.875C1595 671.365 1605.62 660.75 1619.12 660.75C1632.63 660.75 1643.25 671.365 1643.25 684.875C1643.25 698.385 1632.63 709 1619.12 709ZM1522.62 709C1509.11 709 1498.5 698.385 1498.5 684.875C1498.5 671.365 1509.11 660.75 1522.62 660.75C1536.13 660.75 1546.75 671.365 1546.75 684.875C1546.75 698.385 1536.13 709 1522.62 709ZM1474.38 709C1460.86 709 1450.25 698.385 1450.25 684.875C1450.25 671.365 1460.86 660.75 1474.38 660.75C1487.88 660.75 1498.5 671.365 1498.5 684.875C1498.5 698.385 1487.88 709 1474.38 709ZM1329.62 709C1316.12 709 1305.5 698.385 1305.5 684.875C1305.5 671.365 1316.12 660.75 1329.62 660.75C1343.13 660.75 1353.75 671.365 1353.75 684.875C1353.75 698.385 1343.13 709 1329.62 709ZM1570.88 709C1557.37 709 1546.75 698.385 1546.75 684.875C1546.75 671.365 1557.37 660.75 1570.88 660.75C1584.38 660.75 1595 671.365 1595 684.875C1595 698.385 1584.38 709 1570.88 709ZM2005.12 371.25C1991.61 371.25 1981 360.635 1981 347.125C1981 333.615 1991.61 323 2005.12 323C2018.63 323 2029.25 333.615 2029.25 347.125C2029.25 360.635 2018.63 371.25 2005.12 371.25ZM2439.38 371.25C2425.87 371.25 2415.25 360.635 2415.25 347.125C2415.25 333.615 2425.87 323 2439.38 323C2452.88 323 2463.5 333.615 2463.5 347.125C2463.5 360.635 2452.88 371.25 2439.38 371.25ZM2391.12 371.25C2377.62 371.25 2367 360.635 2367 347.125C2367 333.615 2377.62 323 2391.12 323C2404.63 323 2415.25 333.615 2415.25 347.125C2415.25 360.635 2404.63 371.25 2391.12 371.25ZM2342.88 371.25C2329.36 371.25 2318.75 360.635 2318.75 347.125C2318.75 333.615 2329.36 323 2342.88 323C2356.38 323 2367 333.615 2367 347.125C2367 360.635 2356.38 371.25 2342.88 371.25ZM2294.62 371.25C2281.11 371.25 2270.5 360.635 2270.5 347.125C2270.5 333.615 2281.11 323 2294.62 323C2308.13 323 2318.75 333.615 2318.75 347.125C2318.75 360.635 2308.13 371.25 2294.62 371.25ZM2246.38 371.25C2232.86 371.25 2222.25 360.635 2222.25 347.125C2222.25 333.615 2232.86 323 2246.38 323C2259.88 323 2270.5 333.615 2270.5 347.125C2270.5 360.635 2259.88 371.25 2246.38 371.25ZM2149.88 371.25C2136.37 371.25 2125.75 360.635 2125.75 347.125C2125.75 333.615 2136.37 323 2149.88 323C2163.38 323 2174 333.615 2174 347.125C2174 360.635 2163.38 371.25 2149.88 371.25ZM2101.62 371.25C2088.12 371.25 2077.5 360.635 2077.5 347.125C2077.5 333.615 2088.12 323 2101.62 323C2115.13 323 2125.75 333.615 2125.75 347.125C2125.75 360.635 2115.13 371.25 2101.62 371.25ZM2053.38 371.25C2039.87 371.25 2029.25 360.635 2029.25 347.125C2029.25 333.615 2039.87 323 2053.38 323C2066.88 323 2077.5 333.615 2077.5 347.125C2077.5 360.635 2066.88 371.25 2053.38 371.25ZM2005.12 419.5C1991.61 419.5 1981 408.885 1981 395.375C1981 381.865 1991.61 371.25 2005.12 371.25C2018.63 371.25 2029.25 381.865 2029.25 395.375C2029.25 408.885 2018.63 419.5 2005.12 419.5ZM2487.62 419.5C2474.11 419.5 2463.5 408.885 2463.5 395.375C2463.5 381.865 2474.11 371.25 2487.62 371.25C2501.13 371.25 2511.75 381.865 2511.75 395.375C2511.75 408.885 2501.13 419.5 2487.62 419.5ZM2439.38 419.5C2425.87 419.5 2415.25 408.885 2415.25 395.375C2415.25 381.865 2425.87 371.25 2439.38 371.25C2452.88 371.25 2463.5 381.865 2463.5 395.375C2463.5 408.885 2452.88 419.5 2439.38 419.5ZM2391.12 419.5C2377.62 419.5 2367 408.885 2367 395.375C2367 381.865 2377.62 371.25 2391.12 371.25C2404.63 371.25 2415.25 381.865 2415.25 395.375C2415.25 408.885 2404.63 419.5 2391.12 419.5ZM2342.88 419.5C2329.36 419.5 2318.75 408.885 2318.75 395.375C2318.75 381.865 2329.36 371.25 2342.88 371.25C2356.38 371.25 2367 381.865 2367 395.375C2367 408.885 2356.38 419.5 2342.88 419.5ZM2053.38 419.5C2039.87 419.5 2029.25 408.885 2029.25 395.375C2029.25 381.865 2039.87 371.25 2053.38 371.25C2066.88 371.25 2077.5 381.865 2077.5 395.375C2077.5 408.885 2066.88 419.5 2053.38 419.5ZM2294.62 419.5C2281.11 419.5 2270.5 408.885 2270.5 395.375C2270.5 381.865 2281.11 371.25 2294.62 371.25C2308.13 371.25 2318.75 381.865 2318.75 395.375C2318.75 408.885 2308.13 419.5 2294.62 419.5ZM2246.38 419.5C2232.86 419.5 2222.25 408.885 2222.25 395.375C2222.25 381.865 2232.86 371.25 2246.38 371.25C2259.88 371.25 2270.5 381.865 2270.5 395.375C2270.5 408.885 2259.88 419.5 2246.38 419.5ZM2198.12 419.5C2184.61 419.5 2174 408.885 2174 395.375C2174 381.865 2184.61 371.25 2198.12 371.25C2211.63 371.25 2222.25 381.865 2222.25 395.375C2222.25 408.885 2211.63 419.5 2198.12 419.5ZM2149.88 419.5C2136.37 419.5 2125.75 408.885 2125.75 395.375C2125.75 381.865 2136.37 371.25 2149.88 371.25C2163.38 371.25 2174 381.865 2174 395.375C2174 408.885 2163.38 419.5 2149.88 419.5ZM2101.62 419.5C2088.12 419.5 2077.5 408.885 2077.5 395.375C2077.5 381.865 2088.12 371.25 2101.62 371.25C2115.13 371.25 2125.75 381.865 2125.75 395.375C2125.75 408.885 2115.13 419.5 2101.62 419.5ZM2101.62 467.75C2088.12 467.75 2077.5 457.135 2077.5 443.625C2077.5 430.115 2088.12 419.5 2101.62 419.5C2115.13 419.5 2125.75 430.115 2125.75 443.625C2125.75 457.135 2115.13 467.75 2101.62 467.75ZM2487.62 467.75C2474.11 467.75 2463.5 457.135 2463.5 443.625C2463.5 430.115 2474.11 419.5 2487.62 419.5C2501.13 419.5 2511.75 430.115 2511.75 443.625C2511.75 457.135 2501.13 467.75 2487.62 467.75ZM2535.88 467.75C2522.36 467.75 2511.75 457.135 2511.75 443.625C2511.75 430.115 2522.36 419.5 2535.88 419.5C2549.38 419.5 2560 430.115 2560 443.625C2560 457.135 2549.38 467.75 2535.88 467.75ZM2149.88 467.75C2136.37 467.75 2125.75 457.135 2125.75 443.625C2125.75 430.115 2136.37 419.5 2149.88 419.5C2163.38 419.5 2174 430.115 2174 443.625C2174 457.135 2163.38 467.75 2149.88 467.75ZM2439.38 467.75C2425.87 467.75 2415.25 457.135 2415.25 443.625C2415.25 430.115 2425.87 419.5 2439.38 419.5C2452.88 419.5 2463.5 430.115 2463.5 443.625C2463.5 457.135 2452.88 467.75 2439.38 467.75ZM2391.12 467.75C2377.62 467.75 2367 457.135 2367 443.625C2367 430.115 2377.62 419.5 2391.12 419.5C2404.63 419.5 2415.25 430.115 2415.25 443.625C2415.25 457.135 2404.63 467.75 2391.12 467.75ZM2198.12 467.75C2184.61 467.75 2174 457.135 2174 443.625C2174 430.115 2184.61 419.5 2198.12 419.5C2211.63 419.5 2222.25 430.115 2222.25 443.625C2222.25 457.135 2211.63 467.75 2198.12 467.75ZM2053.38 467.75C2039.87 467.75 2029.25 457.135 2029.25 443.625C2029.25 430.115 2039.87 419.5 2053.38 419.5C2066.88 419.5 2077.5 430.115 2077.5 443.625C2077.5 457.135 2066.88 467.75 2053.38 467.75ZM2342.88 467.75C2329.36 467.75 2318.75 457.135 2318.75 443.625C2318.75 430.115 2329.36 419.5 2342.88 419.5C2356.38 419.5 2367 430.115 2367 443.625C2367 457.135 2356.38 467.75 2342.88 467.75ZM2005.12 467.75C1991.61 467.75 1981 457.135 1981 443.625C1981 430.115 1991.61 419.5 2005.12 419.5C2018.63 419.5 2029.25 430.115 2029.25 443.625C2029.25 457.135 2018.63 467.75 2005.12 467.75ZM2053.38 516C2039.87 516 2029.25 505.385 2029.25 491.875C2029.25 478.365 2039.87 467.75 2053.38 467.75C2066.88 467.75 2077.5 478.365 2077.5 491.875C2077.5 505.385 2066.88 516 2053.38 516ZM2005.12 516C1991.61 516 1981 505.385 1981 491.875C1981 478.365 1991.61 467.75 2005.12 467.75C2018.63 467.75 2029.25 478.365 2029.25 491.875C2029.25 505.385 2018.63 516 2005.12 516ZM2535.88 516C2522.36 516 2511.75 505.385 2511.75 491.875C2511.75 478.365 2522.36 467.75 2535.88 467.75C2549.38 467.75 2560 478.365 2560 491.875C2560 505.385 2549.38 516 2535.88 516ZM2101.62 516C2088.12 516 2077.5 505.385 2077.5 491.875C2077.5 478.365 2088.12 467.75 2101.62 467.75C2115.13 467.75 2125.75 478.365 2125.75 491.875C2125.75 505.385 2115.13 516 2101.62 516ZM2149.88 516C2136.37 516 2125.75 505.385 2125.75 491.875C2125.75 478.365 2136.37 467.75 2149.88 467.75C2163.38 467.75 2174 478.365 2174 491.875C2174 505.385 2163.38 516 2149.88 516ZM2391.12 516C2377.62 516 2367 505.385 2367 491.875C2367 478.365 2377.62 467.75 2391.12 467.75C2404.63 467.75 2415.25 478.365 2415.25 491.875C2415.25 505.385 2404.63 516 2391.12 516ZM2487.62 516C2474.11 516 2463.5 505.385 2463.5 491.875C2463.5 478.365 2474.11 467.75 2487.62 467.75C2501.13 467.75 2511.75 478.365 2511.75 491.875C2511.75 505.385 2501.13 516 2487.62 516ZM2439.38 516C2425.87 516 2415.25 505.385 2415.25 491.875C2415.25 478.365 2425.87 467.75 2439.38 467.75C2452.88 467.75 2463.5 478.365 2463.5 491.875C2463.5 505.385 2452.88 516 2439.38 516ZM2439.38 564.25C2425.87 564.25 2415.25 553.635 2415.25 540.125C2415.25 526.615 2425.87 516 2439.38 516C2452.88 516 2463.5 526.615 2463.5 540.125C2463.5 553.635 2452.88 564.25 2439.38 564.25ZM2101.62 564.25C2088.12 564.25 2077.5 553.635 2077.5 540.125C2077.5 526.615 2088.12 516 2101.62 516C2115.13 516 2125.75 526.615 2125.75 540.125C2125.75 553.635 2115.13 564.25 2101.62 564.25ZM2535.88 564.25C2522.36 564.25 2511.75 553.635 2511.75 540.125C2511.75 526.615 2522.36 516 2535.88 516C2549.38 516 2560 526.615 2560 540.125C2560 553.635 2549.38 564.25 2535.88 564.25ZM2149.88 564.25C2136.37 564.25 2125.75 553.635 2125.75 540.125C2125.75 526.615 2136.37 516 2149.88 516C2163.38 516 2174 526.615 2174 540.125C2174 553.635 2163.38 564.25 2149.88 564.25ZM2391.12 564.25C2377.62 564.25 2367 553.635 2367 540.125C2367 526.615 2377.62 516 2391.12 516C2404.63 516 2415.25 526.615 2415.25 540.125C2415.25 553.635 2404.63 564.25 2391.12 564.25ZM2053.38 564.25C2039.87 564.25 2029.25 553.635 2029.25 540.125C2029.25 526.615 2039.87 516 2053.38 516C2066.88 516 2077.5 526.615 2077.5 540.125C2077.5 553.635 2066.88 564.25 2053.38 564.25ZM2487.62 564.25C2474.11 564.25 2463.5 553.635 2463.5 540.125C2463.5 526.615 2474.11 516 2487.62 516C2501.13 516 2511.75 526.615 2511.75 540.125C2511.75 553.635 2501.13 564.25 2487.62 564.25ZM2005.12 564.25C1991.61 564.25 1981 553.635 1981 540.125C1981 526.615 1991.61 516 2005.12 516C2018.63 516 2029.25 526.615 2029.25 540.125C2029.25 553.635 2018.63 564.25 2005.12 564.25ZM2101.62 612.5C2088.12 612.5 2077.5 601.885 2077.5 588.375C2077.5 574.865 2088.12 564.25 2101.62 564.25C2115.13 564.25 2125.75 574.865 2125.75 588.375C2125.75 601.885 2115.13 612.5 2101.62 612.5ZM2005.12 612.5C1991.61 612.5 1981 601.885 1981 588.375C1981 574.865 1991.61 564.25 2005.12 564.25C2018.63 564.25 2029.25 574.865 2029.25 588.375C2029.25 601.885 2018.63 612.5 2005.12 612.5ZM2487.62 612.5C2474.11 612.5 2463.5 601.885 2463.5 588.375C2463.5 574.865 2474.11 564.25 2487.62 564.25C2501.13 564.25 2511.75 574.865 2511.75 588.375C2511.75 601.885 2501.13 612.5 2487.62 612.5ZM2053.38 612.5C2039.87 612.5 2029.25 601.885 2029.25 588.375C2029.25 574.865 2039.87 564.25 2053.38 564.25C2066.88 564.25 2077.5 574.865 2077.5 588.375C2077.5 601.885 2066.88 612.5 2053.38 612.5ZM2535.88 612.5C2522.36 612.5 2511.75 601.885 2511.75 588.375C2511.75 574.865 2522.36 564.25 2535.88 564.25C2549.38 564.25 2560 574.865 2560 588.375C2560 601.885 2549.38 612.5 2535.88 612.5ZM2391.12 612.5C2377.62 612.5 2367 601.885 2367 588.375C2367 574.865 2377.62 564.25 2391.12 564.25C2404.63 564.25 2415.25 574.865 2415.25 588.375C2415.25 601.885 2404.63 612.5 2391.12 612.5ZM2149.88 612.5C2136.37 612.5 2125.75 601.885 2125.75 588.375C2125.75 574.865 2136.37 564.25 2149.88 564.25C2163.38 564.25 2174 574.865 2174 588.375C2174 601.885 2163.38 612.5 2149.88 612.5ZM2342.88 612.5C2329.36 612.5 2318.75 601.885 2318.75 588.375C2318.75 574.865 2329.36 564.25 2342.88 564.25C2356.38 564.25 2367 574.865 2367 588.375C2367 601.885 2356.38 612.5 2342.88 612.5ZM2439.38 612.5C2425.87 612.5 2415.25 601.885 2415.25 588.375C2415.25 574.865 2425.87 564.25 2439.38 564.25C2452.88 564.25 2463.5 574.865 2463.5 588.375C2463.5 601.885 2452.88 612.5 2439.38 612.5ZM2439.38 660.75C2425.87 660.75 2415.25 650.135 2415.25 636.625C2415.25 623.115 2425.87 612.5 2439.38 612.5C2452.88 612.5 2463.5 623.115 2463.5 636.625C2463.5 650.135 2452.88 660.75 2439.38 660.75ZM2005.12 660.75C1991.61 660.75 1981 650.135 1981 636.625C1981 623.115 1991.61 612.5 2005.12 612.5C2018.63 612.5 2029.25 623.115 2029.25 636.625C2029.25 650.135 2018.63 660.75 2005.12 660.75ZM2487.62 660.75C2474.11 660.75 2463.5 650.135 2463.5 636.625C2463.5 623.115 2474.11 612.5 2487.62 612.5C2501.13 612.5 2511.75 623.115 2511.75 636.625C2511.75 650.135 2501.13 660.75 2487.62 660.75ZM2198.12 660.75C2184.61 660.75 2174 650.135 2174 636.625C2174 623.115 2184.61 612.5 2198.12 612.5C2211.63 612.5 2222.25 623.115 2222.25 636.625C2222.25 650.135 2211.63 660.75 2198.12 660.75ZM2246.38 660.75C2232.86 660.75 2222.25 650.135 2222.25 636.625C2222.25 623.115 2232.86 612.5 2246.38 612.5C2259.88 612.5 2270.5 623.115 2270.5 636.625C2270.5 650.135 2259.88 660.75 2246.38 660.75ZM2294.62 660.75C2281.11 660.75 2270.5 650.135 2270.5 636.625C2270.5 623.115 2281.11 612.5 2294.62 612.5C2308.13 612.5 2318.75 623.115 2318.75 636.625C2318.75 650.135 2308.13 660.75 2294.62 660.75ZM2342.88 660.75C2329.36 660.75 2318.75 650.135 2318.75 636.625C2318.75 623.115 2329.36 612.5 2342.88 612.5C2356.38 612.5 2367 623.115 2367 636.625C2367 650.135 2356.38 660.75 2342.88 660.75ZM2391.12 660.75C2377.62 660.75 2367 650.135 2367 636.625C2367 623.115 2377.62 612.5 2391.12 612.5C2404.63 612.5 2415.25 623.115 2415.25 636.625C2415.25 650.135 2404.63 660.75 2391.12 660.75ZM2149.88 660.75C2136.37 660.75 2125.75 650.135 2125.75 636.625C2125.75 623.115 2136.37 612.5 2149.88 612.5C2163.38 612.5 2174 623.115 2174 636.625C2174 650.135 2163.38 660.75 2149.88 660.75ZM2101.62 660.75C2088.12 660.75 2077.5 650.135 2077.5 636.625C2077.5 623.115 2088.12 612.5 2101.62 612.5C2115.13 612.5 2125.75 623.115 2125.75 636.625C2125.75 650.135 2115.13 660.75 2101.62 660.75ZM2053.38 660.75C2039.87 660.75 2029.25 650.135 2029.25 636.625C2029.25 623.115 2039.87 612.5 2053.38 612.5C2066.88 612.5 2077.5 623.115 2077.5 636.625C2077.5 650.135 2066.88 660.75 2053.38 660.75ZM2246.38 709C2232.86 709 2222.25 698.385 2222.25 684.875C2222.25 671.365 2232.86 660.75 2246.38 660.75C2259.88 660.75 2270.5 671.365 2270.5 684.875C2270.5 698.385 2259.88 709 2246.38 709ZM2294.62 709C2281.11 709 2270.5 698.385 2270.5 684.875C2270.5 671.365 2281.11 660.75 2294.62 660.75C2308.13 660.75 2318.75 671.365 2318.75 684.875C2318.75 698.385 2308.13 709 2294.62 709ZM2342.88 709C2329.36 709 2318.75 698.385 2318.75 684.875C2318.75 671.365 2329.36 660.75 2342.88 660.75C2356.38 660.75 2367 671.365 2367 684.875C2367 698.385 2356.38 709 2342.88 709ZM2053.38 709C2039.87 709 2029.25 698.385 2029.25 684.875C2029.25 671.365 2039.87 660.75 2053.38 660.75C2066.88 660.75 2077.5 671.365 2077.5 684.875C2077.5 698.385 2066.88 709 2053.38 709ZM2198.12 709C2184.61 709 2174 698.385 2174 684.875C2174 671.365 2184.61 660.75 2198.12 660.75C2211.63 660.75 2222.25 671.365 2222.25 684.875C2222.25 698.385 2211.63 709 2198.12 709ZM2391.12 709C2377.62 709 2367 698.385 2367 684.875C2367 671.365 2377.62 660.75 2391.12 660.75C2404.63 660.75 2415.25 671.365 2415.25 684.875C2415.25 698.385 2404.63 709 2391.12 709ZM2149.88 709C2136.37 709 2125.75 698.385 2125.75 684.875C2125.75 671.365 2136.37 660.75 2149.88 660.75C2163.38 660.75 2174 671.365 2174 684.875C2174 698.385 2163.38 709 2149.88 709ZM2005.12 709C1991.61 709 1981 698.385 1981 684.875C1981 671.365 1991.61 660.75 2005.12 660.75C2018.63 660.75 2029.25 671.365 2029.25 684.875C2029.25 698.385 2018.63 709 2005.12 709ZM2101.62 709C2088.12 709 2077.5 698.385 2077.5 684.875C2077.5 671.365 2088.12 660.75 2101.62 660.75C2115.13 660.75 2125.75 671.365 2125.75 684.875C2125.75 698.385 2115.13 709 2101.62 709ZM2149.88 757.25C2136.37 757.25 2125.75 746.635 2125.75 733.125C2125.75 719.615 2136.37 709 2149.88 709C2163.38 709 2174 719.615 2174 733.125C2174 746.635 2163.38 757.25 2149.88 757.25ZM2005.12 757.25C1991.61 757.25 1981 746.635 1981 733.125C1981 719.615 1991.61 709 2005.12 709C2018.63 709 2029.25 719.615 2029.25 733.125C2029.25 746.635 2018.63 757.25 2005.12 757.25ZM2053.38 757.25C2039.87 757.25 2029.25 746.635 2029.25 733.125C2029.25 719.615 2039.87 709 2053.38 709C2066.88 709 2077.5 719.615 2077.5 733.125C2077.5 746.635 2066.88 757.25 2053.38 757.25ZM2101.62 757.25C2088.12 757.25 2077.5 746.635 2077.5 733.125C2077.5 719.615 2088.12 709 2101.62 709C2115.13 709 2125.75 719.615 2125.75 733.125C2125.75 746.635 2115.13 757.25 2101.62 757.25ZM2005.12 805.5C1991.61 805.5 1981 794.885 1981 781.375C1981 767.865 1991.61 757.25 2005.12 757.25C2018.63 757.25 2029.25 767.865 2029.25 781.375C2029.25 794.885 2018.63 805.5 2005.12 805.5ZM2149.88 805.5C2136.37 805.5 2125.75 794.885 2125.75 781.375C2125.75 767.865 2136.37 757.25 2149.88 757.25C2163.38 757.25 2174 767.865 2174 781.375C2174 794.885 2163.38 805.5 2149.88 805.5ZM2101.62 805.5C2088.12 805.5 2077.5 794.885 2077.5 781.375C2077.5 767.865 2088.12 757.25 2101.62 757.25C2115.13 757.25 2125.75 767.865 2125.75 781.375C2125.75 794.885 2115.13 805.5 2101.62 805.5ZM2053.38 805.5C2039.87 805.5 2029.25 794.885 2029.25 781.375C2029.25 767.865 2039.87 757.25 2053.38 757.25C2066.88 757.25 2077.5 767.865 2077.5 781.375C2077.5 794.885 2066.88 805.5 2053.38 805.5ZM2777.12 226.5C2763.62 226.5 2753 215.885 2753 202.375C2753 188.865 2763.62 178.25 2777.12 178.25C2790.63 178.25 2801.25 188.865 2801.25 202.375C2801.25 215.885 2790.63 226.5 2777.12 226.5ZM2728.88 226.5C2715.37 226.5 2704.75 215.885 2704.75 202.375C2704.75 188.865 2715.37 178.25 2728.88 178.25C2742.38 178.25 2753 188.865 2753 202.375C2753 215.885 2742.38 226.5 2728.88 226.5ZM2680.62 226.5C2667.12 226.5 2656.5 215.885 2656.5 202.375C2656.5 188.865 2667.12 178.25 2680.62 178.25C2694.13 178.25 2704.75 188.865 2704.75 202.375C2704.75 215.885 2694.13 226.5 2680.62 226.5ZM2632.38 226.5C2618.86 226.5 2608.25 215.885 2608.25 202.375C2608.25 188.865 2618.86 178.25 2632.38 178.25C2645.88 178.25 2656.5 188.865 2656.5 202.375C2656.5 215.885 2645.88 226.5 2632.38 226.5ZM2632.38 274.75C2618.86 274.75 2608.25 264.135 2608.25 250.625C2608.25 237.115 2618.86 226.5 2632.38 226.5C2645.88 226.5 2656.5 237.115 2656.5 250.625C2656.5 264.135 2645.88 274.75 2632.38 274.75ZM2680.62 274.75C2667.12 274.75 2656.5 264.135 2656.5 250.625C2656.5 237.115 2667.12 226.5 2680.62 226.5C2694.13 226.5 2704.75 237.115 2704.75 250.625C2704.75 264.135 2694.13 274.75 2680.62 274.75ZM2728.88 274.75C2715.37 274.75 2704.75 264.135 2704.75 250.625C2704.75 237.115 2715.37 226.5 2728.88 226.5C2742.38 226.5 2753 237.115 2753 250.625C2753 264.135 2742.38 274.75 2728.88 274.75ZM2777.12 274.75C2763.62 274.75 2753 264.135 2753 250.625C2753 237.115 2763.62 226.5 2777.12 226.5C2790.63 226.5 2801.25 237.115 2801.25 250.625C2801.25 264.135 2790.63 274.75 2777.12 274.75ZM2680.62 323C2667.12 323 2656.5 312.385 2656.5 298.875C2656.5 285.365 2667.12 274.75 2680.62 274.75C2694.13 274.75 2704.75 285.365 2704.75 298.875C2704.75 312.385 2694.13 323 2680.62 323ZM2728.88 323C2715.37 323 2704.75 312.385 2704.75 298.875C2704.75 285.365 2715.37 274.75 2728.88 274.75C2742.38 274.75 2753 285.365 2753 298.875C2753 312.385 2742.38 323 2728.88 323ZM2777.12 323C2763.62 323 2753 312.385 2753 298.875C2753 285.365 2763.62 274.75 2777.12 274.75C2790.63 274.75 2801.25 285.365 2801.25 298.875C2801.25 312.385 2790.63 323 2777.12 323ZM2632.38 323C2618.86 323 2608.25 312.385 2608.25 298.875C2608.25 285.365 2618.86 274.75 2632.38 274.75C2645.88 274.75 2656.5 285.365 2656.5 298.875C2656.5 312.385 2645.88 323 2632.38 323ZM2777.12 371.25C2763.62 371.25 2753 360.635 2753 347.125C2753 333.615 2763.62 323 2777.12 323C2790.63 323 2801.25 333.615 2801.25 347.125C2801.25 360.635 2790.63 371.25 2777.12 371.25ZM2632.38 371.25C2618.86 371.25 2608.25 360.635 2608.25 347.125C2608.25 333.615 2618.86 323 2632.38 323C2645.88 323 2656.5 333.615 2656.5 347.125C2656.5 360.635 2645.88 371.25 2632.38 371.25ZM2680.62 371.25C2667.12 371.25 2656.5 360.635 2656.5 347.125C2656.5 333.615 2667.12 323 2680.62 323C2694.13 323 2704.75 333.615 2704.75 347.125C2704.75 360.635 2694.13 371.25 2680.62 371.25ZM2728.88 371.25C2715.37 371.25 2704.75 360.635 2704.75 347.125C2704.75 333.615 2715.37 323 2728.88 323C2742.38 323 2753 333.615 2753 347.125C2753 360.635 2742.38 371.25 2728.88 371.25ZM2680.62 419.5C2667.12 419.5 2656.5 408.885 2656.5 395.375C2656.5 381.865 2667.12 371.25 2680.62 371.25C2694.13 371.25 2704.75 381.865 2704.75 395.375C2704.75 408.885 2694.13 419.5 2680.62 419.5ZM2777.12 419.5C2763.62 419.5 2753 408.885 2753 395.375C2753 381.865 2763.62 371.25 2777.12 371.25C2790.63 371.25 2801.25 381.865 2801.25 395.375C2801.25 408.885 2790.63 419.5 2777.12 419.5ZM2632.38 419.5C2618.86 419.5 2608.25 408.885 2608.25 395.375C2608.25 381.865 2618.86 371.25 2632.38 371.25C2645.88 371.25 2656.5 381.865 2656.5 395.375C2656.5 408.885 2645.88 419.5 2632.38 419.5ZM2728.88 419.5C2715.37 419.5 2704.75 408.885 2704.75 395.375C2704.75 381.865 2715.37 371.25 2728.88 371.25C2742.38 371.25 2753 381.865 2753 395.375C2753 408.885 2742.38 419.5 2728.88 419.5ZM2777.12 467.75C2763.62 467.75 2753 457.135 2753 443.625C2753 430.115 2763.62 419.5 2777.12 419.5C2790.63 419.5 2801.25 430.115 2801.25 443.625C2801.25 457.135 2790.63 467.75 2777.12 467.75ZM2632.38 467.75C2618.86 467.75 2608.25 457.135 2608.25 443.625C2608.25 430.115 2618.86 419.5 2632.38 419.5C2645.88 419.5 2656.5 430.115 2656.5 443.625C2656.5 457.135 2645.88 467.75 2632.38 467.75ZM2680.62 467.75C2667.12 467.75 2656.5 457.135 2656.5 443.625C2656.5 430.115 2667.12 419.5 2680.62 419.5C2694.13 419.5 2704.75 430.115 2704.75 443.625C2704.75 457.135 2694.13 467.75 2680.62 467.75ZM2728.88 467.75C2715.37 467.75 2704.75 457.135 2704.75 443.625C2704.75 430.115 2715.37 419.5 2728.88 419.5C2742.38 419.5 2753 430.115 2753 443.625C2753 457.135 2742.38 467.75 2728.88 467.75ZM2632.38 516C2618.86 516 2608.25 505.385 2608.25 491.875C2608.25 478.365 2618.86 467.75 2632.38 467.75C2645.88 467.75 2656.5 478.365 2656.5 491.875C2656.5 505.385 2645.88 516 2632.38 516ZM2777.12 516C2763.62 516 2753 505.385 2753 491.875C2753 478.365 2763.62 467.75 2777.12 467.75C2790.63 467.75 2801.25 478.365 2801.25 491.875C2801.25 505.385 2790.63 516 2777.12 516ZM2680.62 516C2667.12 516 2656.5 505.385 2656.5 491.875C2656.5 478.365 2667.12 467.75 2680.62 467.75C2694.13 467.75 2704.75 478.365 2704.75 491.875C2704.75 505.385 2694.13 516 2680.62 516ZM2728.88 516C2715.37 516 2704.75 505.385 2704.75 491.875C2704.75 478.365 2715.37 467.75 2728.88 467.75C2742.38 467.75 2753 478.365 2753 491.875C2753 505.385 2742.38 516 2728.88 516ZM2632.38 564.25C2618.86 564.25 2608.25 553.635 2608.25 540.125C2608.25 526.615 2618.86 516 2632.38 516C2645.88 516 2656.5 526.615 2656.5 540.125C2656.5 553.635 2645.88 564.25 2632.38 564.25ZM2777.12 564.25C2763.62 564.25 2753 553.635 2753 540.125C2753 526.615 2763.62 516 2777.12 516C2790.63 516 2801.25 526.615 2801.25 540.125C2801.25 553.635 2790.63 564.25 2777.12 564.25ZM2680.62 564.25C2667.12 564.25 2656.5 553.635 2656.5 540.125C2656.5 526.615 2667.12 516 2680.62 516C2694.13 516 2704.75 526.615 2704.75 540.125C2704.75 553.635 2694.13 564.25 2680.62 564.25ZM2728.88 564.25C2715.37 564.25 2704.75 553.635 2704.75 540.125C2704.75 526.615 2715.37 516 2728.88 516C2742.38 516 2753 526.615 2753 540.125C2753 553.635 2742.38 564.25 2728.88 564.25ZM2728.88 612.5C2715.37 612.5 2704.75 601.885 2704.75 588.375C2704.75 574.865 2715.37 564.25 2728.88 564.25C2742.38 564.25 2753 574.865 2753 588.375C2753 601.885 2742.38 612.5 2728.88 612.5ZM2680.62 612.5C2667.12 612.5 2656.5 601.885 2656.5 588.375C2656.5 574.865 2667.12 564.25 2680.62 564.25C2694.13 564.25 2704.75 574.865 2704.75 588.375C2704.75 601.885 2694.13 612.5 2680.62 612.5ZM2777.12 612.5C2763.62 612.5 2753 601.885 2753 588.375C2753 574.865 2763.62 564.25 2777.12 564.25C2790.63 564.25 2801.25 574.865 2801.25 588.375C2801.25 601.885 2790.63 612.5 2777.12 612.5ZM2632.38 612.5C2618.86 612.5 2608.25 601.885 2608.25 588.375C2608.25 574.865 2618.86 564.25 2632.38 564.25C2645.88 564.25 2656.5 574.865 2656.5 588.375C2656.5 601.885 2645.88 612.5 2632.38 612.5ZM2728.88 660.75C2715.37 660.75 2704.75 650.135 2704.75 636.625C2704.75 623.115 2715.37 612.5 2728.88 612.5C2742.38 612.5 2753 623.115 2753 636.625C2753 650.135 2742.38 660.75 2728.88 660.75ZM2680.62 660.75C2667.12 660.75 2656.5 650.135 2656.5 636.625C2656.5 623.115 2667.12 612.5 2680.62 612.5C2694.13 612.5 2704.75 623.115 2704.75 636.625C2704.75 650.135 2694.13 660.75 2680.62 660.75ZM2777.12 660.75C2763.62 660.75 2753 650.135 2753 636.625C2753 623.115 2763.62 612.5 2777.12 612.5C2790.63 612.5 2801.25 623.115 2801.25 636.625C2801.25 650.135 2790.63 660.75 2777.12 660.75ZM2632.38 660.75C2618.86 660.75 2608.25 650.135 2608.25 636.625C2608.25 623.115 2618.86 612.5 2632.38 612.5C2645.88 612.5 2656.5 623.115 2656.5 636.625C2656.5 650.135 2645.88 660.75 2632.38 660.75ZM2777.12 709C2763.62 709 2753 698.385 2753 684.875C2753 671.365 2763.62 660.75 2777.12 660.75C2790.63 660.75 2801.25 671.365 2801.25 684.875C2801.25 698.385 2790.63 709 2777.12 709ZM2632.38 709C2618.86 709 2608.25 698.385 2608.25 684.875C2608.25 671.365 2618.86 660.75 2632.38 660.75C2645.88 660.75 2656.5 671.365 2656.5 684.875C2656.5 698.385 2645.88 709 2632.38 709ZM2680.62 709C2667.12 709 2656.5 698.385 2656.5 684.875C2656.5 671.365 2667.12 660.75 2680.62 660.75C2694.13 660.75 2704.75 671.365 2704.75 684.875C2704.75 698.385 2694.13 709 2680.62 709ZM2728.88 709C2715.37 709 2704.75 698.385 2704.75 684.875C2704.75 671.365 2715.37 660.75 2728.88 660.75C2742.38 660.75 2753 671.365 2753 684.875C2753 698.385 2742.38 709 2728.88 709ZM3259.62 371.25C3246.11 371.25 3235.5 360.635 3235.5 347.125C3235.5 333.615 3246.11 323 3259.62 323C3273.13 323 3283.75 333.615 3283.75 347.125C3283.75 360.635 3273.13 371.25 3259.62 371.25ZM3549.12 371.25C3535.61 371.25 3525 360.635 3525 347.125C3525 333.615 3535.61 323 3549.12 323C3562.63 323 3573.25 333.615 3573.25 347.125C3573.25 360.635 3562.63 371.25 3549.12 371.25ZM3500.88 371.25C3487.36 371.25 3476.75 360.635 3476.75 347.125C3476.75 333.615 3487.36 323 3500.88 323C3514.38 323 3525 333.615 3525 347.125C3525 360.635 3514.38 371.25 3500.88 371.25ZM3597.38 371.25C3583.86 371.25 3573.25 360.635 3573.25 347.125C3573.25 333.615 3583.86 323 3597.38 323C3610.88 323 3621.5 333.615 3621.5 347.125C3621.5 360.635 3610.88 371.25 3597.38 371.25ZM3404.38 371.25C3390.87 371.25 3380.25 360.635 3380.25 347.125C3380.25 333.615 3390.87 323 3404.38 323C3417.88 323 3428.5 333.615 3428.5 347.125C3428.5 360.635 3417.88 371.25 3404.38 371.25ZM3356.12 371.25C3342.62 371.25 3332 360.635 3332 347.125C3332 333.615 3342.62 323 3356.12 323C3369.63 323 3380.25 333.615 3380.25 347.125C3380.25 360.635 3369.63 371.25 3356.12 371.25ZM3307.88 371.25C3294.37 371.25 3283.75 360.635 3283.75 347.125C3283.75 333.615 3294.37 323 3307.88 323C3321.38 323 3332 333.615 3332 347.125C3332 360.635 3321.38 371.25 3307.88 371.25ZM3404.38 419.5C3390.87 419.5 3380.25 408.885 3380.25 395.375C3380.25 381.865 3390.87 371.25 3404.38 371.25C3417.88 371.25 3428.5 381.865 3428.5 395.375C3428.5 408.885 3417.88 419.5 3404.38 419.5ZM3307.88 419.5C3294.37 419.5 3283.75 408.885 3283.75 395.375C3283.75 381.865 3294.37 371.25 3307.88 371.25C3321.38 371.25 3332 381.865 3332 395.375C3332 408.885 3321.38 419.5 3307.88 419.5ZM3597.38 419.5C3583.86 419.5 3573.25 408.885 3573.25 395.375C3573.25 381.865 3583.86 371.25 3597.38 371.25C3610.88 371.25 3621.5 381.865 3621.5 395.375C3621.5 408.885 3610.88 419.5 3597.38 419.5ZM3356.12 419.5C3342.62 419.5 3332 408.885 3332 395.375C3332 381.865 3342.62 371.25 3356.12 371.25C3369.63 371.25 3380.25 381.865 3380.25 395.375C3380.25 408.885 3369.63 419.5 3356.12 419.5ZM3452.62 419.5C3439.11 419.5 3428.5 408.885 3428.5 395.375C3428.5 381.865 3439.11 371.25 3452.62 371.25C3466.13 371.25 3476.75 381.865 3476.75 395.375C3476.75 408.885 3466.13 419.5 3452.62 419.5ZM3259.62 419.5C3246.11 419.5 3235.5 408.885 3235.5 395.375C3235.5 381.865 3246.11 371.25 3259.62 371.25C3273.13 371.25 3283.75 381.865 3283.75 395.375C3283.75 408.885 3273.13 419.5 3259.62 419.5ZM3549.12 419.5C3535.61 419.5 3525 408.885 3525 395.375C3525 381.865 3535.61 371.25 3549.12 371.25C3562.63 371.25 3573.25 381.865 3573.25 395.375C3573.25 408.885 3562.63 419.5 3549.12 419.5ZM3500.88 419.5C3487.36 419.5 3476.75 408.885 3476.75 395.375C3476.75 381.865 3487.36 371.25 3500.88 371.25C3514.38 371.25 3525 381.865 3525 395.375C3525 408.885 3514.38 419.5 3500.88 419.5ZM3307.88 467.75C3294.37 467.75 3283.75 457.135 3283.75 443.625C3283.75 430.115 3294.37 419.5 3307.88 419.5C3321.38 419.5 3332 430.115 3332 443.625C3332 457.135 3321.38 467.75 3307.88 467.75ZM3356.12 467.75C3342.62 467.75 3332 457.135 3332 443.625C3332 430.115 3342.62 419.5 3356.12 419.5C3369.63 419.5 3380.25 430.115 3380.25 443.625C3380.25 457.135 3369.63 467.75 3356.12 467.75ZM3404.38 467.75C3390.87 467.75 3380.25 457.135 3380.25 443.625C3380.25 430.115 3390.87 419.5 3404.38 419.5C3417.88 419.5 3428.5 430.115 3428.5 443.625C3428.5 457.135 3417.88 467.75 3404.38 467.75ZM3597.38 467.75C3583.86 467.75 3573.25 457.135 3573.25 443.625C3573.25 430.115 3583.86 419.5 3597.38 419.5C3610.88 419.5 3621.5 430.115 3621.5 443.625C3621.5 457.135 3610.88 467.75 3597.38 467.75ZM3549.12 467.75C3535.61 467.75 3525 457.135 3525 443.625C3525 430.115 3535.61 419.5 3549.12 419.5C3562.63 419.5 3573.25 430.115 3573.25 443.625C3573.25 457.135 3562.63 467.75 3549.12 467.75ZM3259.62 467.75C3246.11 467.75 3235.5 457.135 3235.5 443.625C3235.5 430.115 3246.11 419.5 3259.62 419.5C3273.13 419.5 3283.75 430.115 3283.75 443.625C3283.75 457.135 3273.13 467.75 3259.62 467.75ZM3452.62 467.75C3439.11 467.75 3428.5 457.135 3428.5 443.625C3428.5 430.115 3439.11 419.5 3452.62 419.5C3466.13 419.5 3476.75 430.115 3476.75 443.625C3476.75 457.135 3466.13 467.75 3452.62 467.75ZM3500.88 467.75C3487.36 467.75 3476.75 457.135 3476.75 443.625C3476.75 430.115 3487.36 419.5 3500.88 419.5C3514.38 419.5 3525 430.115 3525 443.625C3525 457.135 3514.38 467.75 3500.88 467.75ZM3307.88 516C3294.37 516 3283.75 505.385 3283.75 491.875C3283.75 478.365 3294.37 467.75 3307.88 467.75C3321.38 467.75 3332 478.365 3332 491.875C3332 505.385 3321.38 516 3307.88 516ZM3356.12 516C3342.62 516 3332 505.385 3332 491.875C3332 478.365 3342.62 467.75 3356.12 467.75C3369.63 467.75 3380.25 478.365 3380.25 491.875C3380.25 505.385 3369.63 516 3356.12 516ZM3259.62 516C3246.11 516 3235.5 505.385 3235.5 491.875C3235.5 478.365 3246.11 467.75 3259.62 467.75C3273.13 467.75 3283.75 478.365 3283.75 491.875C3283.75 505.385 3273.13 516 3259.62 516ZM3404.38 516C3390.87 516 3380.25 505.385 3380.25 491.875C3380.25 478.365 3390.87 467.75 3404.38 467.75C3417.88 467.75 3428.5 478.365 3428.5 491.875C3428.5 505.385 3417.88 516 3404.38 516ZM3452.62 516C3439.11 516 3428.5 505.385 3428.5 491.875C3428.5 478.365 3439.11 467.75 3452.62 467.75C3466.13 467.75 3476.75 478.365 3476.75 491.875C3476.75 505.385 3466.13 516 3452.62 516ZM3404.38 564.25C3390.87 564.25 3380.25 553.635 3380.25 540.125C3380.25 526.615 3390.87 516 3404.38 516C3417.88 516 3428.5 526.615 3428.5 540.125C3428.5 553.635 3417.88 564.25 3404.38 564.25ZM3356.12 564.25C3342.62 564.25 3332 553.635 3332 540.125C3332 526.615 3342.62 516 3356.12 516C3369.63 516 3380.25 526.615 3380.25 540.125C3380.25 553.635 3369.63 564.25 3356.12 564.25ZM3307.88 564.25C3294.37 564.25 3283.75 553.635 3283.75 540.125C3283.75 526.615 3294.37 516 3307.88 516C3321.38 516 3332 526.615 3332 540.125C3332 553.635 3321.38 564.25 3307.88 564.25ZM3259.62 564.25C3246.11 564.25 3235.5 553.635 3235.5 540.125C3235.5 526.615 3246.11 516 3259.62 516C3273.13 516 3283.75 526.615 3283.75 540.125C3283.75 553.635 3273.13 564.25 3259.62 564.25ZM3307.88 612.5C3294.37 612.5 3283.75 601.885 3283.75 588.375C3283.75 574.865 3294.37 564.25 3307.88 564.25C3321.38 564.25 3332 574.865 3332 588.375C3332 601.885 3321.38 612.5 3307.88 612.5ZM3356.12 612.5C3342.62 612.5 3332 601.885 3332 588.375C3332 574.865 3342.62 564.25 3356.12 564.25C3369.63 564.25 3380.25 574.865 3380.25 588.375C3380.25 601.885 3369.63 612.5 3356.12 612.5ZM3259.62 612.5C3246.11 612.5 3235.5 601.885 3235.5 588.375C3235.5 574.865 3246.11 564.25 3259.62 564.25C3273.13 564.25 3283.75 574.865 3283.75 588.375C3283.75 601.885 3273.13 612.5 3259.62 612.5ZM3404.38 612.5C3390.87 612.5 3380.25 601.885 3380.25 588.375C3380.25 574.865 3390.87 564.25 3404.38 564.25C3417.88 564.25 3428.5 574.865 3428.5 588.375C3428.5 601.885 3417.88 612.5 3404.38 612.5ZM3404.38 660.75C3390.87 660.75 3380.25 650.135 3380.25 636.625C3380.25 623.115 3390.87 612.5 3404.38 612.5C3417.88 612.5 3428.5 623.115 3428.5 636.625C3428.5 650.135 3417.88 660.75 3404.38 660.75ZM3356.12 660.75C3342.62 660.75 3332 650.135 3332 636.625C3332 623.115 3342.62 612.5 3356.12 612.5C3369.63 612.5 3380.25 623.115 3380.25 636.625C3380.25 650.135 3369.63 660.75 3356.12 660.75ZM3259.62 660.75C3246.11 660.75 3235.5 650.135 3235.5 636.625C3235.5 623.115 3246.11 612.5 3259.62 612.5C3273.13 612.5 3283.75 623.115 3283.75 636.625C3283.75 650.135 3273.13 660.75 3259.62 660.75ZM3307.88 660.75C3294.37 660.75 3283.75 650.135 3283.75 636.625C3283.75 623.115 3294.37 612.5 3307.88 612.5C3321.38 612.5 3332 623.115 3332 636.625C3332 650.135 3321.38 660.75 3307.88 660.75ZM3404.38 709C3390.87 709 3380.25 698.385 3380.25 684.875C3380.25 671.365 3390.87 660.75 3404.38 660.75C3417.88 660.75 3428.5 671.365 3428.5 684.875C3428.5 698.385 3417.88 709 3404.38 709ZM3356.12 709C3342.62 709 3332 698.385 3332 684.875C3332 671.365 3342.62 660.75 3356.12 660.75C3369.63 660.75 3380.25 671.365 3380.25 684.875C3380.25 698.385 3369.63 709 3356.12 709ZM3307.88 709C3294.37 709 3283.75 698.385 3283.75 684.875C3283.75 671.365 3294.37 660.75 3307.88 660.75C3321.38 660.75 3332 671.365 3332 684.875C3332 698.385 3321.38 709 3307.88 709ZM3259.62 709C3246.11 709 3235.5 698.385 3235.5 684.875C3235.5 671.365 3246.11 660.75 3259.62 660.75C3273.13 660.75 3283.75 671.365 3283.75 684.875C3283.75 698.385 3273.13 709 3259.62 709Z" fill="#F6E4FF"/>
</svg>
